0
SECTION
2
HEADER
9
$INSUNITS
70
4
9
$ACADVER
1
AC1014
9
$HANDSEED
5
FFFF
0
ENDSEC
0
SECTION
2
TABLES
0
TABLE
2
VPORT
5
8
100
AcDbSymbolTable
0
ENDTAB
0
TABLE
2
LTYPE
5
5
100
AcDbSymbolTable
0
LTYPE
5
14
100
AcDbSymbolTableRecord
100
AcDbLinetypeTableRecord
2
BYBLOCK
70
0
0
LTYPE
5
15
100
AcDbSymbolTableRecord
100
AcDbLinetypeTableRecord
2
BYLAYER
70
0
0
LTYPE
5
16
100
AcDbSymbolTableRecord
100
AcDbLinetypeTableRecord
2
DASHED
70
0
3
Dashed __ __ __ __ __ __ __ __ __ __ __ __ __ _
72
65
73
2
40
0.75
49
0.5
74
0
49
-0.25
74
0
0
ENDTAB
0
TABLE
2
LAYER
5
2
100
AcDbSymbolTable
70
2
0
LAYER
5
50
100
AcDbSymbolTableRecord
100
AcDbLayerTableRecord
2
0
70
0
62
7
6
CONTINUOUS
0
ENDTAB
0
TABLE
2
STYLE
5
3
100
AcDbSymbolTable
70
1
0
STYLE
5
11
100
AcDbSymbolTableRecord
100
AcDbTextStyleTableRecord
2
STANDARD
70
0
0
ENDTAB
0
TABLE
2
VIEW
5
6
100
AcDbSymbolTable
70
0
0
ENDTAB
0
TABLE
2
UCS
5
7
100
AcDbSymbolTable
70
0
0
ENDTAB
0
TABLE
2
APPID
5
9
100
AcDbSymbolTable
70
2
0
APPID
5
12
100
AcDbSymbolTableRecord
100
AcDbRegAppTableRecord
2
ACAD
70
0
0
ENDTAB
0
TABLE
2
DIMSTYLE
5
A
100
AcDbSymbolTable
70
1
0
ENDTAB
0
TABLE
2
BLOCK_RECORD
5
1
100
AcDbSymbolTable
70
1
0
BLOCK_RECORD
5
1F
100
AcDbSymbolTableRecord
100
AcDbBlockTableRecord
2
*MODEL_SPACE
0
BLOCK_RECORD
5
1B
100
AcDbSymbolTableRecord
100
AcDbBlockTableRecord
2
*PAPER_SPACE
0
ENDTAB
0
ENDSEC
0
SECTION
2
BLOCKS
0
BLOCK
5
20
100
AcDbEntity
100
AcDbBlockBegin
2
*MODEL_SPACE
0
ENDBLK
5
21
100
AcDbEntity
100
AcDbBlockEnd
0
BLOCK
5
1C
100
AcDbEntity
100
AcDbBlockBegin
2
*PAPER_SPACE
0
ENDBLK
5
1D
100
AcDbEntity
100
AcDbBlockEnd
0
ENDSEC
0
SECTION
2
ENTITIES
0
POINT
5
100
100
AcDbEntity
8
0
100
AcDbPoint
10
17.000001550525887
20
6.0000001043081586
30
0
0
POINT
5
101
100
AcDbEntity
8
0
100
AcDbPoint
10
102.00000155052587
20
49.000000104308199
30
0
0
CIRCLE
5
102
100
AcDbEntity
8
0
100
AcDbCircle
10
0
20
110
30
0
40
32.000000476837158
210
0
220
0
230
1
0
ARC
5
103
100
AcDbEntity
8
0
100
AcDbCircle
10
0
20
110
30
0
40
52.499999999999993
210
0
220
-0
230
1
100
AcDbArc
50
22.657603614427412
51
336.39346594641398
0
LWPOLYLINE
5
104
100
AcDbEntity
8
0
100
AcDbPolyline
90
20
43
0.0
10
48.10664604376001
20
88.9761895361381
10
48.572044774149056
20
90.01262518381242
10
49.03854090485862
20
90.98876926416025
10
49.51227120529399
20
91.90313137616783
10
50.00186557669353
20
92.75363275968553
10
50.517141107568975
20
93.5380244965625
10
51.06773173532441
20
94.25443895175643
10
51.35888301875696
20
94.58683579046851
10
51.661682796171476
20
94.90204311280041
10
51.97667047375655
20
95.20022875203375
10
52.304107283555155
20
95.48172055645217
10
52.99556597486249
20
95.99699065685475
10
53.73015175112739
20
96.45517332737758
10
54.49500471250811
20
96.86764978611787
10
55.271529282807435
20
97.24903515773664
10
56.037581840285725
20
97.61574134649217
10
56.769923605623696
20
97.98439043638737
10
57.44641416905321
20
98.37042408228112
10
57.75765281190936
20
98.57411505501356
10
58.04829184897663
20
98.78667856420144
0
ARC
5
105
100
AcDbEntity
8
0
100
AcDbCircle
10
55.000000000000014
20
102.75
30
0
40
4.9999999999997673
210
-0
220
0
230
1
100
AcDbArc
50
-52.435195025352897
51
0
0
LINE
5
106
100
AcDbEntity
8
0
100
AcDbLine
10
60.000000000000007
20
102.75
30
0
11
60.000000000000014
21
117.25
31
0
0
ARC
5
107
100
AcDbEntity
8
0
100
AcDbCircle
10
55.000000000000014
20
117.25000000000001
30
0
40
5
210
0
220
0
230
1
100
AcDbArc
50
0
51
53.783218169316584
0
LWPOLYLINE
5
108
100
AcDbEntity
8
0
100
AcDbPolyline
90
17
43
0.0
10
57.9542099975279
20
121.2839364509754
10
57.38128435094804
20
121.66701563617103
10
56.74353869733
20
122.0251365360959
10
56.05631702020773
20
122.36962412087325
10
55.33746033757936
20
122.7137926668057
10
54.605736425633445
20
123.07183218304857
10
53.87934162511894
20
123.45772470380234
10
53.17422642463136
20
123.88399693005984
10
52.50250906255692
20
124.3605195148253
10
51.8714689872013
20
124.89373588152563
10
51.28345321755468
20
125.48658394227624
10
50.73701599374113
20
126.13935826301565
10
50.22814115128396
20
126.85061165419046
10
49.75114438399596
20
127.61777755936686
10
49.29955917436584
20
128.43774743459983
10
48.86704472093349
20
129.3074312153952
10
48.448228004440246
20
130.22422317988475
0
LINE
5
109
100
AcDbEntity
8
0
100
AcDbLine
10
16.300001550529082
20
112.2000001043082
30
0
11
16.300001550529082
21
95.000000319006617
31
0
0
ARC
5
110
100
AcDbEntity
8
0
100
AcDbCircle
10
17.800001550529139
20
95.000000319006617
30
0
40
1.5000000000000568
210
0
220
0
230
1
100
AcDbArc
50
180
51
270.00000000001017
0
LINE
5
111
100
AcDbEntity
8
0
100
AcDbLine
10
17.800001550529405
20
93.500000319006602
30
0
11
18.000001537256516
21
93.500000319006602
31
0
0
ARC
5
112
100
AcDbEntity
8
0
100
AcDbCircle
10
18.000001537256516
20
97.500000319006617
30
0
40
4.0000000000000213
210
0
220
0
230
1
100
AcDbArc
50
-90
51
0
0
LINE
5
113
100
AcDbEntity
8
0
100
AcDbLine
10
22.000001537256537
20
97.500000319007825
30
0
11
22.000001537246909
21
129.50000010430819
31
0
0
LWPOLYLINE
5
114
100
AcDbEntity
8
0
100
AcDbPolyline
90
33
43
0.0
10
22.00000153724691
20
129.50000010430819
10
21.990235912246813
20
129.80761729180819
10
21.960939037246725
20
130.10546885430819
10
21.912110912246643
20
130.39355479180819
10
21.843751537246558
20
130.67187510430819
10
21.755860912246476
20
130.94042979180819
10
21.6484390372464
20
131.19921885430819
10
21.521485912246327
20
131.44824229180819
10
21.375001537246256
20
131.68750010430819
10
21.208985912246188
20
131.91699229180819
10
21.02343903724612
20
132.13671885430819
10
20.81836091224606
20
132.34667979180819
10
20.593751537245996
20
132.54687510430819
10
20.34961091224594
20
132.73730479180819
10
20.085939037245886
20
132.91796885430819
10
19.802735912245836
20
133.08886729180819
10
19.50000153724579
20
133.25000010430819
10
19.177735912245744
20
133.40136729180819
10
18.8359390372457
20
133.54296885430819
10
18.474610912245662
20
133.67480479180819
10
18.093751537245623
20
133.79687510430819
10
17.693360912245595
20
133.90917979180819
10
17.273439037245563
20
134.01171885430819
10
16.833985912245534
20
134.10449229180819
10
16.37500153724551
20
134.18750010430819
10
15.896485912245488
20
134.26074229180819
10
15.39843903724547
20
134.32421885430819
10
14.880860912245453
20
134.37792979180819
10
14.343751537245438
20
134.42187510430819
10
13.78711091224543
20
134.45605479180819
10
13.21093903724542
20
134.48046885430819
10
12.615235912245417
20
134.49511729180819
10
12.000001537245417
20
134.50000010430819
0
LWPOLYLINE
5
115
100
AcDbEntity
8
0
100
AcDbPolyline
90
33
43
0.0
10
12.000001537245417
20
134.50000010430819
10
11.384767163062476
20
134.49511729180819
10
10.7890640388536
20
134.48046885430819
10
10.212892164618783
20
134.45605479180819
10
9.656251540358026
20
134.42187510430819
10
9.119142166071335
20
134.37792979180819
10
8.601564041758701
20
134.32421885430819
10
8.103517167420131
20
134.26074229180819
10
7.625001543055623
20
134.18750010430819
10
7.166017168665175
20
134.10449229180819
10
6.72656404424879
20
134.01171885430819
10
6.306642169806465
20
133.90917979180819
10
5.906251545338203
20
133.7968751043082
10
5.525392170844002
20
133.6748047918082
10
5.164064046323864
20
133.5429688543082
10
4.822267171777785
20
133.4013672918082
10
4.50000154720577
20
133.2500001043082
10
4.197267172607814
20
133.0888672918082
10
3.914064047983923
20
132.9179688543082
10
3.6503921733340903
20
132.7373047918082
10
3.406251548658321
20
132.5468751043082
10
3.1816421739566123
20
132.3466797918082
10
2.976564049228967
20
132.1367188543082
10
2.791017174475381
20
131.9169922918082
10
2.625001549695858
20
131.6875001043082
10
2.4785171748903956
20
131.4482422918082
10
2.3515640500589963
20
131.19921885430824
10
2.2441421752016564
20
130.94042979180824
10
2.15625155031838
20
130.67187510430824
10
2.0878921754091637
20
130.39355479180824
10
2.039064050474011
20
130.10546885430827
10
2.0097671755129176
20
129.80761729180827
10
2.0000015505258872
20
129.50000010430827
0
LINE
5
116
100
AcDbEntity
8
0
100
AcDbLine
10
2.0000015505258872
20
129.50000010430827
30
0
11
17.000001550525887
21
129.50000010430816
31
0
0
LINE
5
117
100
AcDbEntity
8
0
100
AcDbLine
10
17.000001550525887
20
129.50000010430816
30
0
11
17.000001550525887
21
126.00000010430819
31
0
0
LINE
5
118
100
AcDbEntity
8
0
100
AcDbLine
10
17.000001550525887
20
126.00000010430819
30
0
11
12.000001550525887
21
126.00000010430819
31
0
0
LINE
5
119
100
AcDbEntity
8
0
100
AcDbLine
10
12.000001550525887
20
126.00000010430819
30
0
11
12.000001550525887
21
121.50000010430817
31
0
0
LINE
5
120
100
AcDbEntity
8
0
100
AcDbLine
10
12.000001550525887
20
121.50000010430817
30
0
11
17.000001550525887
21
121.50000010430817
31
0
0
LINE
5
121
100
AcDbEntity
8
0
100
AcDbLine
10
17.000001550525887
20
121.50000010430817
30
0
11
17.000001550525887
21
118.00000010430819
31
0
0
LINE
5
122
100
AcDbEntity
8
0
100
AcDbLine
10
17.000001550525887
20
118.00000010430819
30
0
11
9.5000015505258872
21
118.00000010430682
31
0
0
LINE
5
123
100
AcDbEntity
8
0
100
AcDbLine
10
9.5000015505258872
20
118.00000010430682
30
0
11
9.5000015505258872
21
114.00000010430814
31
0
0
ARC
5
124
100
AcDbEntity
8
0
100
AcDbCircle
10
10.000001550525859
20
114.00000010430814
30
0
40
0.49999999999997158
210
0
220
0
230
1
100
AcDbArc
50
180
51
270
0
LWPOLYLINE
5
125
100
AcDbEntity
8
0
100
AcDbPolyline
90
19
43
0.0
10
10.000001550525859
20
113.50000010430814
10
10.1390662807844
20
113.50888309889692
10
10.252417859687593
20
113.53225716684189
10
10.445554731286446
20
113.6057129374367
10
10.647389717073429
20
113.69335937414145
10
10.898434648490051
20
113.77734370346299
10
11.216313256719893
20
113.8471373666746
10
11.600338792740201
20
113.89770496612438
10
12.036091647373457
20
113.92767321154362
10
12.499996971338982
20
113.93749986635522
10
12.963902295442544
20
113.92767321154362
10
13.399655154355052
20
113.89770496612438
10
13.78368071950188
20
113.84713736667462
10
14.101559435541269
20
113.777343703463
10
14.352604656980752
20
113.69335937414147
10
14.554440284793593
20
113.60571293743675
10
14.747578403035213
20
113.53225716684193
10
14.860930937656738
20
113.50888309889694
10
14.999996915459628
20
113.50000010430819
0
ARC
5
126
100
AcDbEntity
8
0
100
AcDbCircle
10
15.000001550529067
20
112.2000001043082
30
0
40
1.3000000000000145
210
0
220
0
230
1
100
AcDbArc
50
0
51
90.000204284551259
0
LINE
5
127
100
AcDbEntity
8
0
100
AcDbLine
10
7.7000015505226926
20
109.80000010430821
30
0
11
7.7000015505226926
21
126.99999988960977
31
0
0
ARC
5
128
100
AcDbEntity
8
0
100
AcDbCircle
10
6.2000015505226713
20
126.99999988960977
30
0
40
1.5000000000000213
210
0
220
0
230
1
100
AcDbArc
50
0
51
90.000000000010175
0
LINE
5
129
100
AcDbEntity
8
0
100
AcDbLine
10
6.2000015505224049
20
128.4999998896098
30
0
11
6.0000015637952586
21
128.4999998896098
31
0
0
ARC
5
130
100
AcDbEntity
8
0
100
AcDbCircle
10
6.0000015637952586
20
124.49999988960975
30
0
40
4.0000000000000391
210
0
220
-0
230
1
100
AcDbArc
50
90
51
180
0
LINE
5
131
100
AcDbEntity
8
0
100
AcDbLine
10
2.0000015637952351
20
124.49999988960855
30
0
11
2.0000015638048652
21
92.500000104308185
31
0
0
LWPOLYLINE
5
132
100
AcDbEntity
8
0
100
AcDbPolyline
90
33
43
0.0
10
2.000001563804865
20
92.50000010430819
10
2.009767188804957
20
92.19238291680819
10
2.039064063805046
20
91.89453135430819
10
2.0878921888051316
20
91.60644541680819
10
2.1562515638052147
20
91.32812510430819
10
2.244142188805295
20
91.05957041680819
10
2.3515640638053723
20
90.80078135430819
10
2.4785171888054465
20
90.55175791680819
10
2.625001563805518
20
90.31250010430819
10
2.791017188805587
20
90.08300791680819
10
2.976564063805652
20
89.86328135430819
10
3.1816421888057143
20
89.65332041680819
10
3.406251563805774
20
89.45312510430819
10
3.650392188805831
20
89.26269541680819
10
3.9140640638058852
20
89.08203135430819
10
4.197267188805936
20
88.91113291680819
10
4.500001563805984
20
88.75000010430819
10
4.822267188806029
20
88.59863291680819
10
5.164064063806071
20
88.45703135430819
10
5.52539218880611
20
88.32519541680819
10
5.906251563806147
20
88.20312510430819
10
6.3066421888061805
20
88.09082041680819
10
6.726564063806212
20
87.98828135430819
10
7.166017188806239
20
87.89550791680819
10
7.625001563806264
20
87.81250010430819
10
8.103517188806286
20
87.73925791680819
10
8.601564063806304
20
87.67578135430819
10
9.11914218880632
20
87.62207041680819
10
9.656251563806334
20
87.57812510430819
10
10.212892188806343
20
87.54394541680819
10
10.789064063806352
20
87.51953135430819
10
11.384767188806357
20
87.50488291680819
10
12.000001563806357
20
87.50000010430819
0
LWPOLYLINE
5
133
100
AcDbEntity
8
0
100
AcDbPolyline
90
33
43
0.0
10
12.000001563806357
20
87.50000010430819
10
12.615235937989297
20
87.50488291680819
10
13.210939062198173
20
87.51953135430819
10
13.78711093643299
20
87.54394541680819
10
14.343751560693747
20
87.57812510430819
10
14.88086093498044
20
87.62207041680819
10
15.398439059293072
20
87.67578135430819
10
15.896485933631643
20
87.73925791680819
10
16.37500155799615
20
87.81250010430819
10
16.833985932386597
20
87.89550791680819
10
17.27343905680298
20
87.98828135430819
10
17.693360931245305
20
88.09082041680817
10
18.09375155571357
20
88.20312510430817
10
18.47461093020777
20
88.32519541680817
10
18.83593905472791
20
88.45703135430817
10
19.17773592927399
20
88.59863291680817
10
19.500001553846005
20
88.75000010430817
10
19.80273592844396
20
88.91113291680817
10
20.085939053067854
20
89.08203135430814
10
20.349610927717684
20
89.26269541680814
10
20.59375155239345
20
89.45312510430814
10
20.81836092709516
20
89.65332041680814
10
21.023439051822805
20
89.86328135430814
10
21.208985926576393
20
90.08300791680813
10
21.375001551355915
20
90.31250010430813
10
21.52148592616138
20
90.55175791680813
10
21.648439050992774
20
90.80078135430813
10
21.755860925850115
20
91.05957041680811
10
21.84375155073339
20
91.32812510430811
10
21.91211092564261
20
91.60644541680811
10
21.960939050577764
20
91.89453135430811
10
21.990235925538855
20
92.1923829168081
10
22.000001550525887
20
92.5000001043081
0
LINE
5
134
100
AcDbEntity
8
0
100
AcDbLine
10
22.000001550525887
20
92.5000001043081
30
0
11
7.0000015505258872
21
92.500000104308214
31
0
0
LINE
5
135
100
AcDbEntity
8
0
100
AcDbLine
10
7.0000015505258872
20
92.500000104308214
30
0
11
7.0000015505258872
21
96.000000104308214
31
0
0
LINE
5
136
100
AcDbEntity
8
0
100
AcDbLine
10
7.0000015505258872
20
96.000000104308214
30
0
11
12.000001550525887
21
96.000000104308214
31
0
0
LINE
5
137
100
AcDbEntity
8
0
100
AcDbLine
10
12.000001550525887
20
96.000000104308214
30
0
11
12.000001550525887
21
100.50000010430821
31
0
0
LINE
5
138
100
AcDbEntity
8
0
100
AcDbLine
10
12.000001550525887
20
100.50000010430821
30
0
11
7.0000015505258872
21
100.50000010430821
31
0
0
LINE
5
139
100
AcDbEntity
8
0
100
AcDbLine
10
7.0000015505258872
20
100.50000010430821
30
0
11
7.0000015505258872
21
104.00000010430821
31
0
0
LINE
5
140
100
AcDbEntity
8
0
100
AcDbLine
10
7.0000015505258872
20
104.00000010430821
30
0
11
14.500001550525887
21
104.00000010430955
31
0
0
LINE
5
141
100
AcDbEntity
8
0
100
AcDbLine
10
14.500001550525887
20
104.00000010430955
30
0
11
14.500001550525887
21
108.00000010430824
31
0
0
ARC
5
142
100
AcDbEntity
8
0
100
AcDbCircle
10
14.000001550525916
20
108.00000010430824
30
0
40
0.49999999999997158
210
0
220
0
230
1
100
AcDbArc
50
0
51
90
0
LWPOLYLINE
5
143
100
AcDbEntity
8
0
100
AcDbPolyline
90
19
43
0.0
10
14.000001550525916
20
108.50000010430821
10
13.860936820267373
20
108.49111710971944
10
13.74758524136418
20
108.46774304177447
10
13.554448369765328
20
108.39428727117965
10
13.352613383978344
20
108.3066408344749
10
13.101568452561722
20
108.22265650515337
10
12.78368984433188
20
108.15286284194175
10
12.399664308311573
20
108.10229524249198
10
11.963911453678318
20
108.07232699707274
10
11.500006129712794
20
108.06250034226113
10
11.03610080560923
20
108.07232699707274
10
10.600347946696722
20
108.10229524249198
10
10.216322381549894
20
108.15286284194174
10
9.898443665510506
20
108.22265650515335
10
9.647398444071023
20
108.30664083447489
10
9.445562816258182
20
108.39428727117962
10
9.252424698016561
20
108.46774304177444
10
9.139072163395037
20
108.49111710971941
10
9.000006185592149
20
108.50000010430819
0
ARC
5
144
100
AcDbEntity
8
0
100
AcDbCircle
10
9.0000015505227093
20
109.80000010430821
30
0
40
1.3000000000000167
210
0
220
0
230
1
100
AcDbArc
50
180
51
270.00020428455122
0
LINE
5
145
100
AcDbEntity
8
0
100
AcDbLine
10
-6.6999984494709253
20
112.2000001043082
30
0
11
-6.6999984494709253
21
95.000000319006617
31
0
0
ARC
5
146
100
AcDbEntity
8
0
100
AcDbCircle
10
-5.1999984494709039
20
95.000000319006617
30
0
40
1.5000000000000213
210
0
220
0
230
1
100
AcDbArc
50
180
51
270.00000000001017
0
LINE
5
147
100
AcDbEntity
8
0
100
AcDbLine
10
-5.1999984494706375
20
93.500000319006602
30
0
11
-4.9999984627435268
21
93.500000319006602
31
0
0
ARC
5
148
100
AcDbEntity
8
0
100
AcDbCircle
10
-4.9999984627435268
20
97.500000319006617
30
0
40
4.0000000000000213
210
0
220
0
230
1
100
AcDbArc
50
-90
51
0
0
LINE
5
149
100
AcDbEntity
8
0
100
AcDbLine
10
-0.99999846274350324
20
97.500000319007825
30
0
11
-0.99999846275309778
21
129.50000010430819
31
0
0
LWPOLYLINE
5
150
100
AcDbEntity
8
0
100
AcDbPolyline
90
33
43
0.0
10
-0.9999984627530978
20
129.50000010430819
10
-1.0097640877531873
20
129.80761729180819
10
-1.039060962753274
20
130.10546885430819
10
-1.087889087753358
20
130.39355479180819
10
-1.156248462753439
20
130.67187510430819
10
-1.2441390877535174
20
130.94042979180819
10
-1.351560962753593
20
131.19921885430819
10
-1.4785140877536653
20
131.44824229180819
10
-1.624998462753735
20
131.68750010430819
10
-1.7910140877538019
20
131.91699229180819
10
-1.976560962753866
20
132.13671885430819
10
-2.181639087753927
20
132.34667979180819
10
-2.406248462753985
20
132.54687510430819
10
-2.6503890877540406
20
132.73730479180819
10
-2.9140609627540934
20
132.91796885430819
10
-3.1972640877541436
20
133.08886729180819
10
-3.4999984627541902
20
133.25000010430819
10
-3.8222640877542338
20
133.40136729180819
10
-4.1640609627542755
20
133.54296885430819
10
-4.525389087754314
20
133.67480479180819
10
-4.906248462754349
20
133.79687510430819
10
-5.306639087754382
20
133.90917979180819
10
-5.726560962754412
20
134.01171885430819
10
-6.166014087754439
20
134.10449229180819
10
-6.624998462754463
20
134.18750010430819
10
-7.103514087754484
20
134.26074229180819
10
-7.601560962754503
20
134.32421885430819
10
-8.119139087754519
20
134.37792979180819
10
-8.656248462754531
20
134.42187510430819
10
-9.21288908775454
20
134.45605479180819
10
-9.789060962754549
20
134.48046885430819
10
-10.384764087754554
20
134.49511729180819
10
-10.999998462754554
20
134.50000010430819
0
LWPOLYLINE
5
151
100
AcDbEntity
8
0
100
AcDbPolyline
90
33
43
0.0
10
-10.999998462754554
20
134.50000010430819
10
-11.615232836937496
20
134.49511729180819
10
-12.210935961146376
20
134.48046885430819
10
-12.787107835381194
20
134.45605479180819
10
-13.34374845964195
20
134.42187510430819
10
-13.880857833928646
20
134.37792979180819
10
-14.39843595824128
20
134.32421885430819
10
-14.896482832579851
20
134.26074229180819
10
-15.374998456944361
20
134.18750010430819
10
-15.83398283133481
20
134.10449229180819
10
-16.273435955751197
20
134.01171885430819
10
-16.69335783019352
20
133.90917979180819
10
-17.09374845466178
20
133.7968751043082
10
-17.474607829155985
20
133.6748047918082
10
-17.835935953676124
20
133.5429688543082
10
-18.177732828222204
20
133.4013672918082
10
-18.49999845279422
20
133.2500001043082
10
-18.802732827392173
20
133.0888672918082
10
-19.085935952016065
20
132.9179688543082
10
-19.349607826665896
20
132.7373047918082
10
-19.593748451341664
20
132.5468751043082
10
-19.818357826043375
20
132.3466797918082
10
-20.02343595077102
20
132.1367188543082
10
-20.208982825524604
20
131.9169922918082
10
-20.374998450304126
20
131.6875001043082
10
-20.521482825109587
20
131.4482422918082
10
-20.648435949940986
20
131.19921885430824
10
-20.755857824798323
20
130.94042979180824
10
-20.8437484496816
20
130.67187510430824
10
-20.912107824590812
20
130.39355479180824
10
-20.96093594952596
20
130.10546885430827
10
-20.990232824487055
20
129.80761729180827
10
-20.999998449474084
20
129.50000010430827
0
LINE
5
152
100
AcDbEntity
8
0
100
AcDbLine
10
-20.999998449474084
20
129.50000010430827
30
0
11
-5.9999984494740843
21
129.50000010430816
31
0
0
LINE
5
153
100
AcDbEntity
8
0
100
AcDbLine
10
-5.9999984494740843
20
129.50000010430816
30
0
11
-5.9999984494741554
21
126.00000010430819
31
0
0
LINE
5
154
100
AcDbEntity
8
0
100
AcDbLine
10
-5.9999984494741554
20
126.00000010430819
30
0
11
-10.999998449474155
21
126.00000010430819
31
0
0
LINE
5
155
100
AcDbEntity
8
0
100
AcDbLine
10
-10.999998449474155
20
126.00000010430819
30
0
11
-10.999998449474155
21
121.50000010430817
31
0
0
LINE
5
156
100
AcDbEntity
8
0
100
AcDbLine
10
-10.999998449474155
20
121.50000010430817
30
0
11
-5.9999984494741554
21
121.50000010430817
31
0
0
LINE
5
157
100
AcDbEntity
8
0
100
AcDbLine
10
-5.9999984494741554
20
121.50000010430817
30
0
11
-5.9999984494741554
21
118.00000010430819
31
0
0
LINE
5
158
100
AcDbEntity
8
0
100
AcDbLine
10
-5.9999984494741554
20
118.00000010430819
30
0
11
-13.499998449474155
21
118.00000010430682
31
0
0
LINE
5
159
100
AcDbEntity
8
0
100
AcDbLine
10
-13.499998449474155
20
118.00000010430682
30
0
11
-13.499998449474155
21
114.00000010430814
31
0
0
ARC
5
160
100
AcDbEntity
8
0
100
AcDbCircle
10
-12.999998449474148
20
114.00000010430814
30
0
40
0.50000000000000711
210
0
220
0
230
1
100
AcDbArc
50
180
51
270
0
LWPOLYLINE
5
161
100
AcDbEntity
8
0
100
AcDbPolyline
90
19
43
0.0
10
-12.999998449474148
20
113.50000010430814
10
-12.860933719215595
20
113.50888309889692
10
-12.747582140312394
20
113.53225716684189
10
-12.55444526871353
20
113.6057129374367
10
-12.352610282926543
20
113.69335937414145
10
-12.101565351509919
20
113.77734370346299
10
-11.783686743280075
20
113.8471373666746
10
-11.39966120725977
20
113.89770496612438
10
-10.963908352626515
20
113.92767321154362
10
-10.500003028660991
20
113.93749986635522
10
-10.036097704557427
20
113.92767321154362
10
-9.60034484564492
20
113.89770496612438
10
-9.216319280498091
20
113.84713736667462
10
-8.898440564458703
20
113.777343703463
10
-8.64739534301922
20
113.69335937414147
10
-8.445559715206379
20
113.60571293743675
10
-8.252421596964759
20
113.53225716684193
10
-8.139069062343234
20
113.50888309889694
10
-8.000003084540346
20
113.50000010430819
0
ARC
5
162
100
AcDbEntity
8
0
100
AcDbCircle
10
-7.9999984494709064
20
112.2000001043082
30
0
40
1.2999999999999812
210
0
220
0
230
1
100
AcDbArc
50
0
51
90.000204284551259
0
LINE
5
163
100
AcDbEntity
8
0
100
AcDbLine
10
-15.299998449477314
20
109.80000010430821
30
0
11
-15.299998449477314
21
126.99999988960977
31
0
0
ARC
5
164
100
AcDbEntity
8
0
100
AcDbCircle
10
-16.799998449477336
20
126.99999988960977
30
0
40
1.5000000000000213
210
0
220
0
230
1
100
AcDbArc
50
0
51
90.000000000010175
0
LINE
5
165
100
AcDbEntity
8
0
100
AcDbLine
10
-16.799998449477602
20
128.4999998896098
30
0
11
-16.999998436204713
21
128.4999998896098
31
0
0
ARC
5
166
100
AcDbEntity
8
0
100
AcDbCircle
10
-16.999998436204713
20
124.49999988960975
30
0
40
4.0000000000000391
210
0
220
-0
230
1
100
AcDbArc
50
90
51
180
0
LINE
5
167
100
AcDbEntity
8
0
100
AcDbLine
10
-20.999998436204734
20
124.49999988960855
30
0
11
-20.999998436195142
21
92.500000104308185
31
0
0
LWPOLYLINE
5
168
100
AcDbEntity
8
0
100
AcDbPolyline
90
33
43
0.0
10
-20.999998436195142
20
92.50000010430819
10
-20.990232811195053
20
92.19238291680819
10
-20.960935936194964
20
91.89453135430819
10
-20.91210781119488
20
91.60644541680819
10
-20.843748436194797
20
91.32812510430819
10
-20.755857811194723
20
91.05957041680819
10
-20.648435936194648
20
90.80078135430819
10
-20.521482811194574
20
90.55175791680819
10
-20.374998436194502
20
90.31250010430819
10
-20.208982811194435
20
90.08300791680819
10
-20.02343593619437
20
89.86328135430819
10
-19.81835781119431
20
89.65332041680819
10
-19.593748436194254
20
89.45312510430819
10
-19.349607811194197
20
89.26269541680819
10
-19.085935936194147
20
89.08203135430819
10
-18.802732811194094
20
88.91113291680819
10
-18.499998436194048
20
88.75000010430819
10
-18.177732811194005
20
88.59863291680819
10
-17.835935936193962
20
88.45703135430819
10
-17.474607811193923
20
88.32519541680819
10
-17.093748436193888
20
88.20312510430819
10
-16.693357811193856
20
88.09082041680819
10
-16.273435936193827
20
87.98828135430819
10
-15.8339828111938
20
87.89550791680819
10
-15.374998436193776
20
87.81250010430819
10
-14.896482811193756
20
87.73925791680819
10
-14.398435936193735
20
87.67578135430819
10
-13.88085781119372
20
87.62207041680819
10
-13.343748436193707
20
87.57812510430819
10
-12.787107811193698
20
87.54394541680819
10
-12.210935936193689
20
87.51953135430819
10
-11.615232811193685
20
87.50488291680819
10
-10.999998436193685
20
87.50000010430819
0
LWPOLYLINE
5
169
100
AcDbEntity
8
0
100
AcDbPolyline
90
33
43
0.0
10
-10.999998436193685
20
87.50000010430819
10
-10.384764062010742
20
87.50488291680819
10
-9.789060937801862
20
87.51953135430819
10
-9.212889063567044
20
87.54394541680819
10
-8.656248439306287
20
87.57812510430819
10
-8.119139065019592
20
87.62207041680819
10
-7.6015609407069595
20
87.67578135430819
10
-7.103514066368388
20
87.73925791680819
10
-6.624998442003878
20
87.81250010430819
10
-6.16601406761343
20
87.89550791680819
10
-5.726560943197043
20
87.98828135430819
10
-5.306639068754718
20
88.09082041680817
10
-4.9062484442864545
20
88.20312510430817
10
-4.525389069792253
20
88.32519541680817
10
-4.164060945272114
20
88.45703135430817
10
-3.822264070726036
20
88.59863291680817
10
-3.49999844615402
20
88.75000010430817
10
-3.197264071556065
20
88.91113291680817
10
-2.914060946932173
20
89.08203135430814
10
-2.650389072282342
20
89.26269541680814
10
-2.4062484476065724
20
89.45312510430814
10
-2.181639072904865
20
89.65332041680814
10
-1.9765609481772195
20
89.86328135430814
10
-1.7910140734236346
20
90.08300791680813
10
-1.6249984486441127
20
90.31250010430813
10
-1.4785140738386515
20
90.55175791680813
10
-1.3515609490072533
20
90.80078135430813
10
-1.2441390741499159
20
91.05957041680811
10
-1.1562484492666403
20
91.32812510430811
10
-1.0878890743574265
20
91.60644541680811
10
-1.0390609494222747
20
91.89453135430811
10
-1.0097640744611835
20
92.1923829168081
10
-0.9999984494741554
20
92.5000001043081
0
LINE
5
170
100
AcDbEntity
8
0
100
AcDbLine
10
-0.99999844947415539
20
92.5000001043081
30
0
11
-15.999998449474155
21
92.500000104308214
31
0
0
LINE
5
171
100
AcDbEntity
8
0
100
AcDbLine
10
-15.999998449474155
20
92.500000104308214
30
0
11
-15.999998449474084
21
96.000000104308214
31
0
0
LINE
5
172
100
AcDbEntity
8
0
100
AcDbLine
10
-15.999998449474084
20
96.000000104308214
30
0
11
-10.999998449474084
21
96.000000104308214
31
0
0
LINE
5
173
100
AcDbEntity
8
0
100
AcDbLine
10
-10.999998449474084
20
96.000000104308214
30
0
11
-10.999998449474084
21
100.50000010430821
31
0
0
LINE
5
174
100
AcDbEntity
8
0
100
AcDbLine
10
-10.999998449474084
20
100.50000010430821
30
0
11
-15.999998449474084
21
100.50000010430821
31
0
0
LINE
5
175
100
AcDbEntity
8
0
100
AcDbLine
10
-15.999998449474084
20
100.50000010430821
30
0
11
-15.999998449474084
21
104.00000010430821
31
0
0
LINE
5
176
100
AcDbEntity
8
0
100
AcDbLine
10
-15.999998449474084
20
104.00000010430821
30
0
11
-8.4999984494740843
21
104.00000010430955
31
0
0
LINE
5
177
100
AcDbEntity
8
0
100
AcDbLine
10
-8.4999984494740843
20
104.00000010430955
30
0
11
-8.4999984494740843
21
108.00000010430824
31
0
0
ARC
5
178
100
AcDbEntity
8
0
100
AcDbCircle
10
-8.9999984494740914
20
108.00000010430824
30
0
40
0.50000000000000711
210
0
220
0
230
1
100
AcDbArc
50
0
51
90
0
LWPOLYLINE
5
179
100
AcDbEntity
8
0
100
AcDbPolyline
90
19
43
0.0
10
-8.999998449474091
20
108.50000010430821
10
-9.139063179732643
20
108.49111710971944
10
-9.252414758635844
20
108.46774304177447
10
-9.445551630234705
20
108.39428727117965
10
-9.647386616021695
20
108.3066408344749
10
-9.898431547438319
20
108.22265650515337
10
-10.216310155668161
20
108.15286284194175
10
-10.60033569168847
20
108.10229524249198
10
-11.036088546321725
20
108.07232699707274
10
-11.49999387028725
20
108.06250034226113
10
-11.963899194390812
20
108.07232699707274
10
-12.39965205330332
20
108.10229524249198
10
-12.783677618450149
20
108.15286284194174
10
-13.101556334489537
20
108.22265650515335
10
-13.35260155592902
20
108.30664083447489
10
-13.554437183741861
20
108.39428727117962
10
-13.747575301983481
20
108.46774304177444
10
-13.860927836605006
20
108.49111710971941
10
-13.999993814407896
20
108.50000010430819
0
ARC
5
180
100
AcDbEntity
8
0
100
AcDbCircle
10
-13.999998449477335
20
109.80000010430821
30
0
40
1.299999999999979
210
0
220
0
230
1
100
AcDbArc
50
180
51
270.00020428455122
0
ARC
5
181
100
AcDbEntity
8
0
100
AcDbCircle
10
0
20
0
30
0
40
52.5
210
0
220
-0
230
1
100
AcDbArc
50
31.910213171709945
51
88.089786828290116
0
CIRCLE
5
182
100
AcDbEntity
8
0
100
AcDbCircle
10
0
20
0
30
0
40
32.000000476837158
210
0
220
0
230
1
0
LINE
5
183
100
AcDbEntity
8
0
100
AcDbLine
10
-47.233007418108606
20
5.4224542636057365
30
0
11
-31.533554568117474
21
35.580822591665253
31
0
0
ARC
5
184
100
AcDbEntity
8
0
100
AcDbCircle
10
0
20
0
30
0
40
47.543243473705061
210
0
220
0
230
1
100
AcDbArc
50
118.45098771530462
51
131.54901228469546
0
LINE
5
185
100
AcDbEntity
8
0
100
AcDbLine
10
-22.649925577925099
20
41.801206577256274
30
0
11
11.059199708784462
21
46.239097112738051
31
0
0
ARC
5
186
100
AcDbEntity
8
0
100
AcDbCircle
10
0
20
0
30
0
40
47.543243473705061
210
0
220
-0
230
1
100
AcDbArc
50
63.450987715304613
51
76.549012284695465
0
LINE
5
187
100
AcDbEntity
8
0
100
AcDbLine
10
21.250080224903236
20
42.529919943907437
30
0
11
44.220147283835701
21
17.462490492363237
31
0
0
LINE
5
188
100
AcDbEntity
8
0
100
AcDbLine
10
44.220147283835701
20
17.462490492363237
30
0
11
38.531712097776982
21
12.250000000000004
31
0
0
LINE
5
189
100
AcDbEntity
8
0
100
AcDbLine
10
38.531712097776982
20
12.250000000000004
30
0
11
34.890561085201298
21
12.250000000000004
31
0
0
LINE
5
190
100
AcDbEntity
8
0
100
AcDbLine
10
34.890561085201298
20
12.250000000000004
30
0
11
13.582395922077977
21
35.503781784704564
31
0
0
ARC
5
191
100
AcDbEntity
8
0
100
AcDbCircle
10
0
20
0
30
0
40
38.013155617496423
210
0
220
-0
230
1
100
AcDbArc
50
69.065051177078018
51
70.93494882292201
0
LINE
5
192
100
AcDbEntity
8
0
100
AcDbLine
10
12.416672107873026
20
35.928070554450443
30
0
11
-21.292453178836539
21
31.490180018968669
31
0
0
ARC
5
193
100
AcDbEntity
8
0
100
AcDbCircle
10
0
20
0
30
0
40
38.013155617496423
210
0
220
0
230
1
100
AcDbArc
50
124.065051177078
51
125.93494882292201
0
LINE
5
194
100
AcDbEntity
8
0
100
AcDbLine
10
-22.308641903063958
20
30.778637014020926
30
0
11
-38.008094753055119
21
0.62026868596138485
31
0
0
ARC
5
195
100
AcDbEntity
8
0
100
AcDbCircle
10
0
20
0
30
0
40
38.013155617496423
210
0
220
0
230
1
100
AcDbArc
50
179.06505117707798
51
180.934948822922
0
LINE
5
196
100
AcDbEntity
8
0
100
AcDbLine
10
-38.008094753055119
20
-0.62026868596136719
30
0
11
-22.308641903063958
21
-30.778637014020926
31
0
0
ARC
5
197
100
AcDbEntity
8
0
100
AcDbCircle
10
0
20
0
30
0
40
38.013155617496423
210
0
220
0
230
1
100
AcDbArc
50
234.06505117707798
51
235.93494882292202
0
LINE
5
198
100
AcDbEntity
8
0
100
AcDbLine
10
-21.292453178836514
20
-31.490180018968687
30
0
11
12.416672107873046
21
-35.928070554450422
31
0
0
ARC
5
199
100
AcDbEntity
8
0
100
AcDbCircle
10
0
20
0
30
0
40
38.013155617496423
210
-0
220
0
230
1
100
AcDbArc
50
289.06505117707803
51
290.93494882292202
0
LINE
5
200
100
AcDbEntity
8
0
100
AcDbLine
10
13.582395922078005
20
-35.503781784704564
30
0
11
36.552462981010443
21
-10.436352333160336
31
0
0
ARC
5
201
100
AcDbEntity
8
0
100
AcDbCircle
10
0
20
0
30
0
40
38.013155617496423
210
-0
220
0
230
1
100
AcDbArc
50
344.06505117707809
51
345.91643438840089
0
LINE
5
202
100
AcDbEntity
8
0
100
AcDbLine
10
36.870550579019024
20
-9.2500000000000071
30
0
11
34.000000506639481
21
-9.2500000000000053
31
0
0
LINE
5
203
100
AcDbEntity
8
0
100
AcDbLine
10
34.000000506639481
20
-9.2500000000000053
30
0
11
34.000000506639481
21
9.2500000000000036
31
0
0
LINE
5
204
100
AcDbEntity
8
0
100
AcDbLine
10
34.000000506639481
20
9.2500000000000036
30
0
11
57.000000000000014
21
9.2500000000000036
31
0
0
LINE
5
205
100
AcDbEntity
8
0
100
AcDbLine
10
57.000000000000014
20
9.2500000000000036
30
0
11
57.000000000000014
21
4.3983088872751921
31
0
0
LINE
5
206
100
AcDbEntity
8
0
100
AcDbLine
10
57.000000000000014
20
4.3983088872751921
30
0
11
60
21
4.3983088872751921
31
0
0
LINE
5
207
100
AcDbEntity
8
0
100
AcDbLine
10
60
20
4.3983088872751921
30
0
11
60.000000000000014
21
7.2500000000000036
31
0
0
ARC
5
208
100
AcDbEntity
8
0
100
AcDbCircle
10
55.000000000000014
20
7.2500000000000053
30
0
40
5
210
-0
220
0
230
1
100
AcDbArc
50
0
51
53.783218169316491
0
LWPOLYLINE
5
209
100
AcDbEntity
8
0
100
AcDbPolyline
90
17
43
0.0
10
57.9542099975279
20
11.28393645097543
10
57.38128435094804
20
11.667015636171012
10
56.74353869733
20
12.025136536095888
10
56.05631702020773
20
12.369624120873265
10
55.33746033757936
20
12.713792666805697
10
54.605736425633445
20
13.071832183048581
10
53.87934162511894
20
13.457724703802363
10
53.17422642463136
20
13.883996930059851
10
52.50250906255692
20
14.360519514825336
10
51.8714689872013
20
14.893735881525629
10
51.28345321755468
20
15.48658394227624
10
50.73701599374113
20
16.139358263015666
10
50.22814115128396
20
16.850611654190473
10
49.75114438399596
20
17.617777559366854
10
49.29955917436584
20
18.43774743459986
10
48.86704472093349
20
19.30743121539523
10
48.448228004440246
20
20.224223179884728
0
ARC
5
210
100
AcDbEntity
8
0
100
AcDbCircle
10
0
20
0
30
0
40
52.500000000000142
210
0
220
-0
230
1
100
AcDbArc
50
22.657603614427462
51
28.089786828290112
0
LINE
5
211
100
AcDbEntity
8
0
100
AcDbLine
10
46.316067604095736
20
24.719868156865932
30
0
11
42.020754641274948
21
22.23996806152762
31
0
0
ARC
5
212
100
AcDbEntity
8
0
100
AcDbCircle
10
0
20
0
30
0
40
47.543243473705061
210
0
220
-0
230
1
100
AcDbArc
50
27.890546326299393
51
32.109453673700607
0
LINE
5
213
100
AcDbEntity
8
0
100
AcDbLine
10
40.270754641274962
20
25.27105697477316
30
0
11
44.566067604095707
21
27.750957070111436
31
0
0
ARC
5
214
100
AcDbEntity
8
0
100
AcDbCircle
10
0
20
0
30
0
40
52.499999999999972
210
0
220
-0
230
1
100
AcDbArc
50
31.910213171709955
51
88.089786828290116
0
LINE
5
215
100
AcDbEntity
8
0
100
AcDbLine
10
1.7499999999999671
20
52.470825226977318
30
0
11
1.7500000000000027
21
47.511025036300779
31
0
0
ARC
5
216
100
AcDbEntity
8
0
100
AcDbCircle
10
0
20
0
30
0
40
47.543243473705061
210
0
220
-0
230
1
100
AcDbArc
50
87.890546326299386
51
92.1094536737006
0
LINE
5
217
100
AcDbEntity
8
0
100
AcDbLine
10
-1.7499999999999902
20
47.511025036300779
30
0
11
-1.7500000000000071
21
52.470825226977297
31
0
0
ARC
5
218
100
AcDbEntity
8
0
100
AcDbCircle
10
0
20
0
30
0
40
52.499999999999972
210
0
220
0
230
1
100
AcDbArc
50
91.910213171709941
51
148.0897868282901
0
LINE
5
219
100
AcDbEntity
8
0
100
AcDbLine
10
-44.56606760409575
20
27.750957070111426
30
0
11
-40.270754641274948
21
25.27105697477316
31
0
0
ARC
5
220
100
AcDbEntity
8
0
100
AcDbCircle
10
0
20
0
30
0
40
47.543243473705061
210
0
220
0
230
1
100
AcDbArc
50
147.89054632629941
51
152.10945367370064
0
LINE
5
221
100
AcDbEntity
8
0
100
AcDbLine
10
-42.020754641274969
20
22.239968061527591
30
0
11
-46.316067604095736
21
24.719868156865871
31
0
0
ARC
5
222
100
AcDbEntity
8
0
100
AcDbCircle
10
0
20
0
30
0
40
52.499999999999972
210
0
220
0
230
1
100
AcDbArc
50
151.91021317170998
51
208.08978682829007
0
LINE
5
223
100
AcDbEntity
8
0
100
AcDbLine
10
-46.31606760409575
20
-24.719868156865907
30
0
11
-42.020754641274955
21
-22.239968061527613
31
0
0
ARC
5
224
100
AcDbEntity
8
0
100
AcDbCircle
10
0
20
0
30
0
40
47.543243473705061
210
0
220
0
230
1
100
AcDbArc
50
207.89054632629939
51
212.10945367370056
0
LINE
5
225
100
AcDbEntity
8
0
100
AcDbLine
10
-40.270754641274976
20
-25.27105697477311
30
0
11
-44.566067604095736
21
-27.750957070111411
31
0
0
ARC
5
226
100
AcDbEntity
8
0
100
AcDbCircle
10
0
20
0
30
0
40
52.499999999999972
210
0
220
0
230
1
100
AcDbArc
50
211.9102131717099
51
268.08978682829007
0
LINE
5
227
100
AcDbEntity
8
0
100
AcDbLine
10
-1.750000000000016
20
-52.470825226977325
30
0
11
-1.7500000000000338
21
-47.511025036300779
31
0
0
ARC
5
228
100
AcDbEntity
8
0
100
AcDbCircle
10
0
20
0
30
0
40
47.543243473705061
210
0
220
0
230
1
100
AcDbArc
50
267.89054632629939
51
272.10945367370056
0
LINE
5
229
100
AcDbEntity
8
0
100
AcDbLine
10
1.7499999999999647
20
-47.511025036300779
30
0
11
1.749999999999976
21
-52.470825226977304
31
0
0
ARC
5
230
100
AcDbEntity
8
0
100
AcDbCircle
10
0
20
0
30
0
40
52.499999999999986
210
-0
220
0
230
1
100
AcDbArc
50
271.91021317170987
51
328.08978682829013
0
LINE
5
231
100
AcDbEntity
8
0
100
AcDbLine
10
44.56606760409575
20
-27.750957070111411
30
0
11
40.270754641274955
21
-25.271056974773153
31
0
0
ARC
5
232
100
AcDbEntity
8
0
100
AcDbCircle
10
0
20
0
30
0
40
47.543243473705061
210
-0
220
0
230
1
100
AcDbArc
50
327.89054632629939
51
332.10945367370061
0
LINE
5
233
100
AcDbEntity
8
0
100
AcDbLine
10
42.020754641274955
20
-22.23996806152762
30
0
11
46.316067604095736
21
-24.719868156865864
31
0
0
ARC
5
234
100
AcDbEntity
8
0
100
AcDbCircle
10
0
20
0
30
0
40
52.499999999999972
210
-0
220
0
230
1
100
AcDbArc
50
331.91021317170998
51
336.39346594641398
0
LWPOLYLINE
5
235
100
AcDbEntity
8
0
100
AcDbPolyline
90
20
43
0.0
10
48.10664604376001
20
-21.023810463861896
10
48.572044774149056
20
-19.987374816187586
10
49.03854090485862
20
-19.011230735839757
10
49.51227120529399
20
-18.096868623832158
10
50.00186557669353
20
-17.246367240314473
10
50.517141107568975
20
-16.461975503437483
10
51.06773173532441
20
-15.74556104824356
10
51.35888301875696
20
-15.413164209531484
10
51.661682796171476
20
-15.097956887199555
10
51.97667047375655
20
-14.799771247966236
10
52.304107283555155
20
-14.518279443547831
10
52.99556597486249
20
-14.00300934314524
10
53.73015175112739
20
-13.544826672622406
10
54.49500471250811
20
-13.13235021388213
10
55.271529282807435
20
-12.750964842263333
10
56.037581840285725
20
-12.384258653507827
10
56.769923605623696
20
-12.015609563612625
10
57.44641416905321
20
-11.629575917718856
10
57.75765281190936
20
-11.425884944986421
10
58.04829184897663
20
-11.213321435798566
0
ARC
5
236
100
AcDbEntity
8
0
100
AcDbCircle
10
55.000000000000014
20
-7.2500000000000036
30
0
40
4.9999999999997655
210
-0
220
0
230
1
100
AcDbArc
50
-52.435195025352897
51
0
0
LINE
5
237
100
AcDbEntity
8
0
100
AcDbLine
10
60.000000000000007
20
-7.2500000000000009
30
0
11
60
21
-4.6016911127248079
31
0
0
LINE
5
238
100
AcDbEntity
8
0
100
AcDbLine
10
60
20
-4.6016911127248079
30
0
11
57.000000000000014
21
-4.601691112724807
31
0
0
LINE
5
239
100
AcDbEntity
8
0
100
AcDbLine
10
57.000000000000014
20
-4.601691112724807
30
0
11
57.000000000000014
21
-9.2499999999999964
31
0
0
LWPOLYLINE
5
240
100
AcDbEntity
8
0
100
AcDbPolyline
90
9
43
0.0
10
57.00000000000001
20
-9.249999999999996
10
56.203683533261646
20
-9.275630123105701
10
55.435591983138906
20
-9.352024548518061
10
54.69531946536209
20
-9.477794669547908
10
53.98226960156899
20
-9.650793726114525
10
53.2957165637289
20
-9.868243597726295
10
52.63486603658272
20
-10.126861437539567
10
51.99891155332237
20
-10.422977337687025
10
51.38707263245868
20
-10.752616717172398
0
LWPOLYLINE
5
241
100
AcDbEntity
8
0
100
AcDbPolyline
90
17
43
0.0
10
51.387072632458356
20
-10.752616717172591
10
50.72265403864742
20
-11.160902566960003
10
50.08727941967498
20
-11.600339405602108
10
49.48019938844208
20
-12.06433960309787
10
48.900885743472884
20
-12.546227087736673
10
48.349046786676126
20
-13.039311000373521
10
47.82462870580813
20
-13.536943968692293
10
47.32781610714381
20
-14.032579443966847
10
46.85903144077184
20
-14.519829620454944
10
46.41891923000601
20
-14.992531350873012
10
46.00830517301622
20
-15.444825284119688
10
45.628148912951175
20
-15.871238334641786
10
45.27949665270239
20
-16.26676627301507
10
44.96342835869156
20
-16.626963894779365
10
44.68097502122769
20
-16.948077126053768
10
44.433011591834024
20
-17.227209194372577
10
44.220147283835715
20
-17.4624904923632
0
LINE
5
242
100
AcDbEntity
8
0
100
AcDbLine
10
44.220147283835722
20
-17.462490492363202
30
0
11
21.250080224903314
21
-42.529919943907394
31
0
0
ARC
5
243
100
AcDbEntity
8
0
100
AcDbCircle
10
0
20
0
30
0
40
47.543243473705061
210
0
220
0
230
1
100
AcDbArc
50
283.45098771530456
51
296.54901228469549
0
LINE
5
244
100
AcDbEntity
8
0
100
AcDbLine
10
11.059199708784506
20
-46.239097112738037
30
0
11
-22.649925577925032
21
-41.801206577256309
31
0
0
ARC
5
245
100
AcDbEntity
8
0
100
AcDbCircle
10
0
20
0
30
0
40
47.543243473705061
210
0
220
0
230
1
100
AcDbArc
50
228.45098771530456
51
241.54901228469546
0
LINE
5
246
100
AcDbEntity
8
0
100
AcDbLine
10
-31.533554568117456
20
-35.580822591665275
30
0
11
-47.233007418108606
21
-5.4224542636057471
31
0
0
ARC
5
247
100
AcDbEntity
8
0
100
AcDbCircle
10
0
20
0
30
0
40
47.543243473705061
210
0
220
0
230
1
100
AcDbArc
50
173.45098771530459
51
186.54901228469544
0
LINE
5
248
100
AcDbEntity
8
0
100
AcDbLine
10
16.300001550529082
20
0.20000010430817561
30
0
11
16.300001550529082
21
-16.999999680993405
31
0
0
ARC
5
249
100
AcDbEntity
8
0
100
AcDbCircle
10
17.800001550529139
20
-16.999999680993405
30
0
40
1.5000000000000568
210
0
220
0
230
1
100
AcDbArc
50
180
51
270.00000000001017
0
LINE
5
250
100
AcDbEntity
8
0
100
AcDbLine
10
17.800001550529405
20
-18.499999680993426
30
0
11
18.000001537256516
21
-18.499999680993426
31
0
0
ARC
5
251
100
AcDbEntity
8
0
100
AcDbCircle
10
18.000001537256516
20
-14.499999680993403
30
0
40
4.0000000000000213
210
0
220
0
230
1
100
AcDbArc
50
-90
51
0
0
LINE
5
252
100
AcDbEntity
8
0
100
AcDbLine
10
22.000001537256537
20
-14.499999680992204
30
0
11
22.000001537246909
21
17.500000104308178
31
0
0
LWPOLYLINE
5
253
100
AcDbEntity
8
0
100
AcDbPolyline
90
33
43
0.0
10
22.00000153724691
20
17.500000104308178
10
21.990235912246813
20
17.807617291808178
10
21.960939037246725
20
18.105468854308178
10
21.912110912246643
20
18.393554791808178
10
21.843751537246558
20
18.671875104308178
10
21.755860912246476
20
18.940429791808178
10
21.6484390372464
20
19.199218854308178
10
21.521485912246327
20
19.448242291808178
10
21.375001537246256
20
19.687500104308178
10
21.208985912246188
20
19.916992291808178
10
21.02343903724612
20
20.136718854308178
10
20.81836091224606
20
20.346679791808178
10
20.593751537245996
20
20.546875104308178
10
20.34961091224594
20
20.737304791808178
10
20.085939037245886
20
20.917968854308178
10
19.802735912245836
20
21.088867291808178
10
19.50000153724579
20
21.250000104308178
10
19.177735912245744
20
21.401367291808178
10
18.8359390372457
20
21.542968854308178
10
18.474610912245662
20
21.674804791808178
10
18.093751537245623
20
21.796875104308178
10
17.693360912245595
20
21.909179791808178
10
17.273439037245563
20
22.011718854308178
10
16.833985912245534
20
22.104492291808178
10
16.37500153724551
20
22.187500104308178
10
15.896485912245488
20
22.260742291808178
10
15.39843903724547
20
22.324218854308178
10
14.880860912245453
20
22.377929791808178
10
14.343751537245438
20
22.421875104308178
10
13.78711091224543
20
22.456054791808178
10
13.21093903724542
20
22.480468854308178
10
12.615235912245417
20
22.495117291808178
10
12.000001537245417
20
22.500000104308178
0
LWPOLYLINE
5
254
100
AcDbEntity
8
0
100
AcDbPolyline
90
33
43
0.0
10
12.000001537245417
20
22.500000104308178
10
11.384767163062476
20
22.495117291808178
10
10.7890640388536
20
22.480468854308178
10
10.212892164618783
20
22.456054791808178
10
9.656251540358026
20
22.421875104308178
10
9.119142166071335
20
22.377929791808178
10
8.601564041758701
20
22.32421885430818
10
8.103517167420131
20
22.26074229180818
10
7.625001543055623
20
22.18750010430818
10
7.166017168665175
20
22.10449229180819
10
6.72656404424879
20
22.01171885430819
10
6.306642169806465
20
21.90917979180819
10
5.906251545338203
20
21.796875104308192
10
5.525392170844002
20
21.674804791808192
10
5.164064046323864
20
21.542968854308196
10
4.822267171777785
20
21.401367291808196
10
4.50000154720577
20
21.2500001043082
10
4.197267172607814
20
21.088867291808207
10
3.914064047983923
20
20.917968854308207
10
3.6503921733340903
20
20.73730479180821
10
3.406251548658321
20
20.546875104308214
10
3.1816421739566123
20
20.346679791808217
10
2.976564049228967
20
20.136718854308217
10
2.791017174475381
20
19.916992291808224
10
2.625001549695858
20
19.687500104308228
10
2.4785171748903956
20
19.44824229180823
10
2.3515640500589963
20
19.199218854308235
10
2.2441421752016564
20
18.940429791808242
10
2.15625155031838
20
18.671875104308246
10
2.0878921754091637
20
18.393554791808253
10
2.039064050474011
20
18.105468854308256
10
2.0097671755129176
20
17.807617291808263
10
2.0000015505258872
20
17.500000104308267
0
LINE
5
255
100
AcDbEntity
8
0
100
AcDbLine
10
2.0000015505258872
20
17.50000010430827
30
0
11
17.000001550525887
21
17.500000104308164
31
0
0
LINE
5
256
100
AcDbEntity
8
0
100
AcDbLine
10
17.000001550525887
20
17.500000104308164
30
0
11
17.000001550525887
21
14.000000104308166
31
0
0
LINE
5
257
100
AcDbEntity
8
0
100
AcDbLine
10
17.000001550525887
20
14.000000104308166
30
0
11
12.000001550525887
21
14.000000104308166
31
0
0
LINE
5
258
100
AcDbEntity
8
0
100
AcDbLine
10
12.000001550525887
20
14.000000104308166
30
0
11
12.000001550525887
21
9.5000001043081639
31
0
0
LINE
5
259
100
AcDbEntity
8
0
100
AcDbLine
10
12.000001550525887
20
9.5000001043081639
30
0
11
17.000001550525887
21
9.5000001043081639
31
0
0
LINE
5
260
100
AcDbEntity
8
0
100
AcDbLine
10
17.000001550525887
20
9.5000001043081639
30
0
11
17.000001550525887
21
6.0000001043081586
31
0
0
LINE
5
261
100
AcDbEntity
8
0
100
AcDbLine
10
17.000001550525887
20
6.0000001043081586
30
0
11
9.5000015505258872
21
6.0000001043068263
31
0
0
LINE
5
262
100
AcDbEntity
8
0
100
AcDbLine
10
9.5000015505258872
20
6.0000001043068263
30
0
11
9.5000015505258872
21
2.0000001043081284
31
0
0
ARC
5
263
100
AcDbEntity
8
0
100
AcDbCircle
10
10.000001550525859
20
2.0000001043081284
30
0
40
0.49999999999997158
210
0
220
0
230
1
100
AcDbArc
50
180
51
270
0
LWPOLYLINE
5
264
100
AcDbEntity
8
0
100
AcDbPolyline
90
19
43
0.0
10
10.000001550525859
20
1.500000104308139
10
10.1390662807844
20
1.5088830988969115
10
10.252417859687593
20
1.5322571668418874
10
10.445554731286446
20
1.6057129374367076
10
10.647389717073429
20
1.693359374141452
10
10.898434648490051
20
1.7773437034629893
10
11.216313256719893
20
1.847137366674601
10
11.600338792740201
20
1.8977049661243783
10
12.036091647373457
20
1.9276732115436186
10
12.499996971338982
20
1.9374998663552234
10
12.963902295442544
20
1.9276732115436208
10
13.399655154355052
20
1.8977049661243828
10
13.78368071950188
20
1.8471373666746087
10
14.101559435541269
20
1.7773437034630015
10
14.352604656980752
20
1.69335937414147
10
14.554440284793593
20
1.605712937436733
10
14.747578403035213
20
1.5322571668419211
10
14.860930937656738
20
1.5088830988969504
10
14.999996915459628
20
1.5000001043081834
0
ARC
5
265
100
AcDbEntity
8
0
100
AcDbCircle
10
15.000001550529058
20
0.20000010430817575
30
0
40
1.3000000000000234
210
0
220
0
230
1
100
AcDbArc
50
0
51
90.000204284550861
0
LINE
5
266
100
AcDbEntity
8
0
100
AcDbLine
10
7.7000015505226926
20
-2.1999998956918088
30
0
11
7.7000015505226926
21
14.999999889609761
31
0
0
ARC
5
267
100
AcDbEntity
8
0
100
AcDbCircle
10
6.2000015505226713
20
14.999999889609761
30
0
40
1.5000000000000213
210
0
220
0
230
1
100
AcDbArc
50
0
51
90.000000000010175
0
LINE
5
268
100
AcDbEntity
8
0
100
AcDbLine
10
6.2000015505224049
20
16.499999889609782
30
0
11
6.0000015637952586
21
16.499999889609782
31
0
0
ARC
5
269
100
AcDbEntity
8
0
100
AcDbCircle
10
6.0000015637952586
20
12.499999889609752
30
0
40
4.0000000000000302
210
0
220
-0
230
1
100
AcDbArc
50
90
51
180
0
LINE
5
270
100
AcDbEntity
8
0
100
AcDbLine
10
2.0000015637952351
20
12.499999889608553
30
0
11
2.0000015638048652
21
-19.499999895691822
31
0
0
LWPOLYLINE
5
271
100
AcDbEntity
8
0
100
AcDbPolyline
90
33
43
0.0
10
2.000001563804865
20
-19.499999895691822
10
2.009767188804957
20
-19.807617083191822
10
2.039064063805046
20
-20.105468645691822
10
2.0878921888051316
20
-20.393554583191822
10
2.1562515638052147
20
-20.671874895691822
10
2.244142188805295
20
-20.940429583191822
10
2.3515640638053723
20
-21.199218645691822
10
2.4785171888054465
20
-21.448242083191822
10
2.625001563805518
20
-21.687499895691822
10
2.791017188805587
20
-21.916992083191822
10
2.976564063805652
20
-22.136718645691822
10
3.1816421888057143
20
-22.346679583191822
10
3.406251563805774
20
-22.546874895691822
10
3.650392188805831
20
-22.737304583191822
10
3.9140640638058852
20
-22.917968645691822
10
4.197267188805936
20
-23.088867083191822
10
4.500001563805984
20
-23.249999895691822
10
4.822267188806029
20
-23.401367083191822
10
5.164064063806071
20
-23.542968645691822
10
5.52539218880611
20
-23.674804583191822
10
5.906251563806147
20
-23.796874895691822
10
6.3066421888061805
20
-23.909179583191822
10
6.726564063806212
20
-24.011718645691822
10
7.166017188806239
20
-24.104492083191822
10
7.625001563806264
20
-24.187499895691822
10
8.103517188806286
20
-24.260742083191822
10
8.601564063806304
20
-24.324218645691822
10
9.11914218880632
20
-24.377929583191822
10
9.656251563806334
20
-24.421874895691822
10
10.212892188806343
20
-24.456054583191822
10
10.789064063806352
20
-24.480468645691822
10
11.384767188806357
20
-24.495117083191822
10
12.000001563806357
20
-24.499999895691822
0
LWPOLYLINE
5
272
100
AcDbEntity
8
0
100
AcDbPolyline
90
33
43
0.0
10
12.000001563806357
20
-24.499999895691822
10
12.615235937989297
20
-24.495117083191822
10
13.210939062198173
20
-24.480468645691822
10
13.78711093643299
20
-24.456054583191822
10
14.343751560693747
20
-24.421874895691822
10
14.88086093498044
20
-24.377929583191822
10
15.398439059293072
20
-24.324218645691822
10
15.896485933631643
20
-24.260742083191825
10
16.37500155799615
20
-24.187499895691825
10
16.833985932386597
20
-24.104492083191825
10
17.27343905680298
20
-24.01171864569183
10
17.693360931245305
20
-23.90917958319183
10
18.09375155571357
20
-23.79687489569183
10
18.47461093020777
20
-23.674804583191833
10
18.83593905472791
20
-23.542968645691833
10
19.17773592927399
20
-23.40136708319184
10
19.500001553846005
20
-23.24999989569184
10
19.80273592844396
20
-23.088867083191843
10
20.085939053067854
20
-22.917968645691847
10
20.349610927717684
20
-22.737304583191847
10
20.59375155239345
20
-22.54687489569185
10
20.81836092709516
20
-22.346679583191857
10
21.023439051822805
20
-22.13671864569186
10
21.208985926576393
20
-21.916992083191865
10
21.375001551355915
20
-21.687499895691868
10
21.52148592616138
20
-21.448242083191875
10
21.648439050992774
20
-21.19921864569188
10
21.755860925850115
20
-20.940429583191882
10
21.84375155073339
20
-20.671874895691886
10
21.91211092564261
20
-20.393554583191893
10
21.960939050577764
20
-20.1054686456919
10
21.990235925538855
20
-19.807617083191904
10
22.000001550525887
20
-19.49999989569191
0
LINE
5
273
100
AcDbEntity
8
0
100
AcDbLine
10
22.000001550525887
20
-19.499999895691911
30
0
11
7.0000015505258872
21
-19.499999895691804
31
0
0
LINE
5
274
100
AcDbEntity
8
0
100
AcDbLine
10
7.0000015505258872
20
-19.499999895691804
30
0
11
7.0000015505258872
21
-15.999999895691799
31
0
0
LINE
5
275
100
AcDbEntity
8
0
100
AcDbLine
10
7.0000015505258872
20
-15.999999895691799
30
0
11
12.000001550525887
21
-15.999999895691799
31
0
0
LINE
5
276
100
AcDbEntity
8
0
100
AcDbLine
10
12.000001550525887
20
-15.999999895691799
30
0
11
12.000001550525887
21
-11.499999895691806
31
0
0
LINE
5
277
100
AcDbEntity
8
0
100
AcDbLine
10
12.000001550525887
20
-11.499999895691806
30
0
11
7.0000015505258872
21
-11.499999895691806
31
0
0
LINE
5
278
100
AcDbEntity
8
0
100
AcDbLine
10
7.0000015505258872
20
-11.499999895691806
30
0
11
7.0000015505258872
21
-7.9999998956918006
31
0
0
LINE
5
279
100
AcDbEntity
8
0
100
AcDbLine
10
7.0000015505258872
20
-7.9999998956918006
30
0
11
14.500001550525887
21
-7.9999998956904594
31
0
0
LINE
5
280
100
AcDbEntity
8
0
100
AcDbLine
10
14.500001550525887
20
-7.9999998956904594
30
0
11
14.500001550525887
21
-3.9999998956917704
31
0
0
ARC
5
281
100
AcDbEntity
8
0
100
AcDbCircle
10
14.000001550525916
20
-3.9999998956917704
30
0
40
0.49999999999997158
210
0
220
0
230
1
100
AcDbArc
50
0
51
90
0
LWPOLYLINE
5
282
100
AcDbEntity
8
0
100
AcDbPolyline
90
19
43
0.0
10
14.000001550525916
20
-3.499999895691781
10
13.860936820267373
20
-3.5088828902805513
10
13.74758524136418
20
-3.532256958225526
10
13.554448369765328
20
-3.605712728820345
10
13.352613383978344
20
-3.6933591655250897
10
13.101568452561722
20
-3.777343494846628
10
12.78368984433188
20
-3.8471371580582403
10
12.399664308311573
20
-3.8977047575080186
10
11.963911453678318
20
-3.9276730029272597
10
11.500006129712794
20
-3.9374996577388646
10
11.03610080560923
20
-3.9276730029272624
10
10.600347946696722
20
-3.897704757508025
10
10.216322381549894
20
-3.8471371580582505
10
9.898443665510506
20
-3.777343494846644
10
9.647398444071023
20
-3.6933591655251123
10
9.445562816258182
20
-3.6057127288203747
10
9.252424698016561
20
-3.5322569582255636
10
9.139072163395037
20
-3.5088828902805926
10
9.000006185592149
20
-3.4999998956918255
0
ARC
5
283
100
AcDbEntity
8
0
100
AcDbCircle
10
9.0000015505227182
20
-2.1999998956918088
30
0
40
1.3000000000000256
210
0
220
0
230
1
100
AcDbArc
50
180
51
270.00020428455082
0
LINE
5
284
100
AcDbEntity
8
0
100
AcDbLine
10
-15.299998449477314
20
-2.1999998956918088
30
0
11
-15.299998449477314
21
14.999999889609761
31
0
0
ARC
5
285
100
AcDbEntity
8
0
100
AcDbCircle
10
-16.799998449477336
20
14.999999889609761
30
0
40
1.5000000000000213
210
0
220
0
230
1
100
AcDbArc
50
0
51
90.000000000010175
0
LINE
5
286
100
AcDbEntity
8
0
100
AcDbLine
10
-16.799998449477602
20
16.499999889609782
30
0
11
-16.999998436204713
21
16.499999889609782
31
0
0
ARC
5
287
100
AcDbEntity
8
0
100
AcDbCircle
10
-16.999998436204713
20
12.499999889609752
30
0
40
4.0000000000000302
210
0
220
-0
230
1
100
AcDbArc
50
90
51
180
0
LINE
5
288
100
AcDbEntity
8
0
100
AcDbLine
10
-20.999998436204734
20
12.499999889608553
30
0
11
-20.999998436195142
21
-19.499999895691822
31
0
0
LWPOLYLINE
5
289
100
AcDbEntity
8
0
100
AcDbPolyline
90
33
43
0.0
10
-20.999998436195142
20
-19.499999895691822
10
-20.990232811195053
20
-19.807617083191822
10
-20.960935936194964
20
-20.105468645691822
10
-20.91210781119488
20
-20.393554583191822
10
-20.843748436194797
20
-20.671874895691822
10
-20.755857811194723
20
-20.940429583191822
10
-20.648435936194648
20
-21.199218645691822
10
-20.521482811194574
20
-21.448242083191822
10
-20.374998436194502
20
-21.687499895691822
10
-20.208982811194435
20
-21.916992083191822
10
-20.02343593619437
20
-22.136718645691822
10
-19.81835781119431
20
-22.346679583191822
10
-19.593748436194254
20
-22.546874895691822
10
-19.349607811194197
20
-22.737304583191822
10
-19.085935936194147
20
-22.917968645691822
10
-18.802732811194094
20
-23.088867083191822
10
-18.499998436194048
20
-23.249999895691822
10
-18.177732811194005
20
-23.401367083191822
10
-17.835935936193962
20
-23.542968645691822
10
-17.474607811193923
20
-23.674804583191822
10
-17.093748436193888
20
-23.796874895691822
10
-16.693357811193856
20
-23.909179583191822
10
-16.273435936193827
20
-24.011718645691822
10
-15.8339828111938
20
-24.104492083191822
10
-15.374998436193776
20
-24.187499895691822
10
-14.896482811193756
20
-24.260742083191822
10
-14.398435936193735
20
-24.324218645691822
10
-13.88085781119372
20
-24.377929583191822
10
-13.343748436193707
20
-24.421874895691822
10
-12.787107811193698
20
-24.456054583191822
10
-12.210935936193689
20
-24.480468645691822
10
-11.615232811193685
20
-24.495117083191822
10
-10.999998436193685
20
-24.499999895691822
0
LWPOLYLINE
5
290
100
AcDbEntity
8
0
100
AcDbPolyline
90
33
43
0.0
10
-10.999998436193685
20
-24.499999895691822
10
-10.384764062010742
20
-24.495117083191822
10
-9.789060937801862
20
-24.480468645691822
10
-9.212889063567044
20
-24.456054583191822
10
-8.656248439306287
20
-24.421874895691822
10
-8.119139065019592
20
-24.377929583191822
10
-7.6015609407069595
20
-24.324218645691822
10
-7.103514066368388
20
-24.260742083191825
10
-6.624998442003878
20
-24.187499895691825
10
-6.16601406761343
20
-24.104492083191825
10
-5.726560943197043
20
-24.01171864569183
10
-5.306639068754718
20
-23.90917958319183
10
-4.9062484442864545
20
-23.79687489569183
10
-4.525389069792253
20
-23.674804583191833
10
-4.164060945272114
20
-23.542968645691833
10
-3.822264070726036
20
-23.40136708319184
10
-3.49999844615402
20
-23.24999989569184
10
-3.197264071556065
20
-23.088867083191843
10
-2.914060946932173
20
-22.917968645691847
10
-2.650389072282342
20
-22.737304583191847
10
-2.4062484476065724
20
-22.54687489569185
10
-2.181639072904865
20
-22.346679583191857
10
-1.9765609481772195
20
-22.13671864569186
10
-1.7910140734236346
20
-21.916992083191865
10
-1.6249984486441127
20
-21.687499895691868
10
-1.4785140738386515
20
-21.448242083191875
10
-1.3515609490072533
20
-21.19921864569188
10
-1.2441390741499159
20
-20.940429583191882
10
-1.1562484492666403
20
-20.671874895691886
10
-1.0878890743574265
20
-20.393554583191893
10
-1.0390609494222747
20
-20.1054686456919
10
-1.0097640744611835
20
-19.807617083191904
10
-0.9999984494741554
20
-19.49999989569191
0
LINE
5
291
100
AcDbEntity
8
0
100
AcDbLine
10
-0.99999844947415539
20
-19.499999895691911
30
0
11
-15.999998449474155
21
-19.499999895691804
31
0
0
LINE
5
292
100
AcDbEntity
8
0
100
AcDbLine
10
-15.999998449474155
20
-19.499999895691804
30
0
11
-15.999998449474084
21
-15.999999895691799
31
0
0
LINE
5
293
100
AcDbEntity
8
0
100
AcDbLine
10
-15.999998449474084
20
-15.999999895691799
30
0
11
-10.999998449474084
21
-15.999999895691799
31
0
0
LINE
5
294
100
AcDbEntity
8
0
100
AcDbLine
10
-10.999998449474084
20
-15.999999895691799
30
0
11
-10.999998449474084
21
-11.499999895691806
31
0
0
LINE
5
295
100
AcDbEntity
8
0
100
AcDbLine
10
-10.999998449474084
20
-11.499999895691806
30
0
11
-15.999998449474084
21
-11.499999895691806
31
0
0
LINE
5
296
100
AcDbEntity
8
0
100
AcDbLine
10
-15.999998449474084
20
-11.499999895691806
30
0
11
-15.999998449474084
21
-7.9999998956918006
31
0
0
LINE
5
297
100
AcDbEntity
8
0
100
AcDbLine
10
-15.999998449474084
20
-7.9999998956918006
30
0
11
-8.4999984494740843
21
-7.9999998956904594
31
0
0
LINE
5
298
100
AcDbEntity
8
0
100
AcDbLine
10
-8.4999984494740843
20
-7.9999998956904594
30
0
11
-8.4999984494740843
21
-3.9999998956917704
31
0
0
ARC
5
299
100
AcDbEntity
8
0
100
AcDbCircle
10
-8.9999984494740914
20
-3.9999998956917704
30
0
40
0.50000000000000711
210
0
220
0
230
1
100
AcDbArc
50
0
51
90
0
LWPOLYLINE
5
300
100
AcDbEntity
8
0
100
AcDbPolyline
90
19
43
0.0
10
-8.999998449474091
20
-3.499999895691781
10
-9.139063179732643
20
-3.5088828902805513
10
-9.252414758635844
20
-3.532256958225526
10
-9.445551630234705
20
-3.605712728820345
10
-9.647386616021695
20
-3.6933591655250897
10
-9.898431547438319
20
-3.777343494846628
10
-10.216310155668161
20
-3.8471371580582403
10
-10.60033569168847
20
-3.8977047575080186
10
-11.036088546321725
20
-3.9276730029272597
10
-11.49999387028725
20
-3.9374996577388646
10
-11.963899194390812
20
-3.9276730029272624
10
-12.39965205330332
20
-3.897704757508025
10
-12.783677618450149
20
-3.8471371580582505
10
-13.101556334489537
20
-3.777343494846644
10
-13.35260155592902
20
-3.6933591655251123
10
-13.554437183741861
20
-3.6057127288203747
10
-13.747575301983481
20
-3.5322569582255636
10
-13.860927836605006
20
-3.5088828902805926
10
-13.999993814407896
20
-3.4999998956918255
0
ARC
5
301
100
AcDbEntity
8
0
100
AcDbCircle
10
-13.999998449477326
20
-2.1999998956918088
30
0
40
1.2999999999999878
210
0
220
0
230
1
100
AcDbArc
50
180
51
270.00020428455082
0
LINE
5
302
100
AcDbEntity
8
0
100
AcDbLine
10
-6.6999984494709253
20
0.20000010430817561
30
0
11
-6.6999984494709253
21
-16.999999680993405
31
0
0
ARC
5
303
100
AcDbEntity
8
0
100
AcDbCircle
10
-5.1999984494709039
20
-16.999999680993405
30
0
40
1.5000000000000213
210
0
220
0
230
1
100
AcDbArc
50
180
51
270.00000000001017
0
LINE
5
304
100
AcDbEntity
8
0
100
AcDbLine
10
-5.1999984494706375
20
-18.499999680993426
30
0
11
-4.9999984627435268
21
-18.499999680993426
31
0
0
ARC
5
305
100
AcDbEntity
8
0
100
AcDbCircle
10
-4.9999984627435268
20
-14.499999680993403
30
0
40
4.0000000000000213
210
0
220
0
230
1
100
AcDbArc
50
-90
51
0
0
LINE
5
306
100
AcDbEntity
8
0
100
AcDbLine
10
-0.99999846274350324
20
-14.499999680992204
30
0
11
-0.99999846275309778
21
17.500000104308178
31
0
0
LWPOLYLINE
5
307
100
AcDbEntity
8
0
100
AcDbPolyline
90
33
43
0.0
10
-0.9999984627530978
20
17.500000104308178
10
-1.0097640877531873
20
17.807617291808178
10
-1.039060962753274
20
18.105468854308178
10
-1.087889087753358
20
18.393554791808178
10
-1.156248462753439
20
18.671875104308178
10
-1.2441390877535174
20
18.940429791808178
10
-1.351560962753593
20
19.199218854308178
10
-1.4785140877536653
20
19.448242291808178
10
-1.624998462753735
20
19.687500104308178
10
-1.7910140877538019
20
19.916992291808178
10
-1.976560962753866
20
20.136718854308178
10
-2.181639087753927
20
20.346679791808178
10
-2.406248462753985
20
20.546875104308178
10
-2.6503890877540406
20
20.737304791808178
10
-2.9140609627540934
20
20.917968854308178
10
-3.1972640877541436
20
21.088867291808178
10
-3.4999984627541902
20
21.250000104308178
10
-3.8222640877542338
20
21.401367291808178
10
-4.1640609627542755
20
21.542968854308178
10
-4.525389087754314
20
21.674804791808178
10
-4.906248462754349
20
21.796875104308178
10
-5.306639087754382
20
21.909179791808178
10
-5.726560962754412
20
22.011718854308178
10
-6.166014087754439
20
22.104492291808178
10
-6.624998462754463
20
22.187500104308178
10
-7.103514087754484
20
22.260742291808178
10
-7.601560962754503
20
22.324218854308178
10
-8.119139087754519
20
22.377929791808178
10
-8.656248462754531
20
22.421875104308178
10
-9.21288908775454
20
22.456054791808178
10
-9.789060962754549
20
22.480468854308178
10
-10.384764087754554
20
22.495117291808178
10
-10.999998462754554
20
22.500000104308178
0
LWPOLYLINE
5
308
100
AcDbEntity
8
0
100
AcDbPolyline
90
33
43
0.0
10
-10.999998462754554
20
22.500000104308178
10
-11.615232836937496
20
22.495117291808178
10
-12.210935961146376
20
22.480468854308178
10
-12.787107835381194
20
22.456054791808178
10
-13.34374845964195
20
22.421875104308178
10
-13.880857833928646
20
22.377929791808178
10
-14.39843595824128
20
22.32421885430818
10
-14.896482832579851
20
22.26074229180818
10
-15.374998456944361
20
22.18750010430818
10
-15.83398283133481
20
22.10449229180819
10
-16.273435955751197
20
22.01171885430819
10
-16.69335783019352
20
21.90917979180819
10
-17.09374845466178
20
21.796875104308192
10
-17.474607829155985
20
21.674804791808192
10
-17.835935953676124
20
21.542968854308196
10
-18.177732828222204
20
21.401367291808196
10
-18.49999845279422
20
21.2500001043082
10
-18.802732827392173
20
21.088867291808207
10
-19.085935952016065
20
20.917968854308207
10
-19.349607826665896
20
20.73730479180821
10
-19.593748451341664
20
20.546875104308214
10
-19.818357826043375
20
20.346679791808217
10
-20.02343595077102
20
20.136718854308217
10
-20.208982825524604
20
19.916992291808224
10
-20.374998450304126
20
19.687500104308228
10
-20.521482825109587
20
19.44824229180823
10
-20.648435949940986
20
19.199218854308235
10
-20.755857824798323
20
18.940429791808242
10
-20.8437484496816
20
18.671875104308246
10
-20.912107824590812
20
18.393554791808253
10
-20.96093594952596
20
18.105468854308256
10
-20.990232824487055
20
17.807617291808263
10
-20.999998449474084
20
17.500000104308267
0
LINE
5
309
100
AcDbEntity
8
0
100
AcDbLine
10
-20.999998449474084
20
17.50000010430827
30
0
11
-5.9999984494740843
21
17.500000104308164
31
0
0
LINE
5
310
100
AcDbEntity
8
0
100
AcDbLine
10
-5.9999984494740843
20
17.500000104308164
30
0
11
-5.9999984494741554
21
14.000000104308166
31
0
0
LINE
5
311
100
AcDbEntity
8
0
100
AcDbLine
10
-5.9999984494741554
20
14.000000104308166
30
0
11
-10.999998449474155
21
14.000000104308166
31
0
0
LINE
5
312
100
AcDbEntity
8
0
100
AcDbLine
10
-10.999998449474155
20
14.000000104308166
30
0
11
-10.999998449474155
21
9.5000001043081639
31
0
0
LINE
5
313
100
AcDbEntity
8
0
100
AcDbLine
10
-10.999998449474155
20
9.5000001043081639
30
0
11
-5.9999984494741554
21
9.5000001043081639
31
0
0
LINE
5
314
100
AcDbEntity
8
0
100
AcDbLine
10
-5.9999984494741554
20
9.5000001043081639
30
0
11
-5.9999984494741554
21
6.0000001043081586
31
0
0
LINE
5
315
100
AcDbEntity
8
0
100
AcDbLine
10
-5.9999984494741554
20
6.0000001043081586
30
0
11
-13.499998449474155
21
6.0000001043068263
31
0
0
LINE
5
316
100
AcDbEntity
8
0
100
AcDbLine
10
-13.499998449474155
20
6.0000001043068263
30
0
11
-13.499998449474155
21
2.0000001043081284
31
0
0
ARC
5
317
100
AcDbEntity
8
0
100
AcDbCircle
10
-12.999998449474148
20
2.0000001043081284
30
0
40
0.50000000000000711
210
0
220
0
230
1
100
AcDbArc
50
180
51
270
0
LWPOLYLINE
5
318
100
AcDbEntity
8
0
100
AcDbPolyline
90
19
43
0.0
10
-12.999998449474148
20
1.500000104308139
10
-12.860933719215595
20
1.5088830988969115
10
-12.747582140312394
20
1.5322571668418874
10
-12.55444526871353
20
1.6057129374367076
10
-12.352610282926543
20
1.693359374141452
10
-12.101565351509919
20
1.7773437034629893
10
-11.783686743280075
20
1.847137366674601
10
-11.39966120725977
20
1.8977049661243783
10
-10.963908352626515
20
1.9276732115436186
10
-10.500003028660991
20
1.9374998663552234
10
-10.036097704557427
20
1.9276732115436208
10
-9.60034484564492
20
1.8977049661243828
10
-9.216319280498091
20
1.8471373666746087
10
-8.898440564458703
20
1.7773437034630015
10
-8.64739534301922
20
1.69335937414147
10
-8.445559715206379
20
1.605712937436733
10
-8.252421596964759
20
1.5322571668419211
10
-8.139069062343234
20
1.5088830988969504
10
-8.000003084540346
20
1.5000001043081834
0
ARC
5
319
100
AcDbEntity
8
0
100
AcDbCircle
10
-7.9999984494709153
20
0.20000010430817575
30
0
40
1.2999999999999901
210
0
220
0
230
1
100
AcDbArc
50
0
51
90.000204284550861
0
LWPOLYLINE
5
320
100
AcDbEntity
8
0
100
AcDbPolyline
90
4
70
1
43
0.0
10
84.135758280297722
20
91.228003696807491
10
85.362704487166283
20
100.54758539372102
10
116.09749518975428
20
96.501273434899488
10
114.87054898288582
20
87.181691737985645
0
LWPOLYLINE
5
321
100
AcDbEntity
8
0
100
AcDbPolyline
90
4
70
1
43
0.0
10
80.035580098093448
20
89.735660883297186
10
59.092283662007823
20
66.880063442183143
10
52.16187669599293
20
73.230611393770616
10
73.105173132078221
20
96.086208834884388
0
LWPOLYLINE
5
322
100
AcDbEntity
8
0
100
AcDbPolyline
90
4
70
1
43
0.0
10
118.4447702395058
20
84.678995070871224
10
126.7826720713809
20
89.019432035280317
10
141.09687908166691
20
61.522096206755556
10
132.75897724979166
20
57.181659242346214
0
LWPOLYLINE
5
323
100
AcDbEntity
8
0
100
AcDbPolyline
90
4
70
1
43
0.0
10
80.035580098093263
20
20.264339116702629
10
73.105173132078249
20
13.913791165115672
10
52.161876695992824
20
36.769388606229406
10
59.092283662008001
20
43.119936557816636
0
CIRCLE
5
324
100
AcDbEntity
8
0
100
AcDbCircle
10
94.999999999999986
20
54.999999999999993
30
0
40
32.000000476837158
210
0
220
-0
230
1
0
LWPOLYLINE
5
325
100
AcDbEntity
8
0
100
AcDbPolyline
90
4
70
1
43
0.0
10
114.87054898288584
20
22.818308262014099
10
116.0974951897542
20
13.498726565100529
10
85.362704487166212
20
9.4524146062789249
10
84.135758280297665
20
18.771996303192733
0
LWPOLYLINE
5
326
100
AcDbEntity
8
0
100
AcDbPolyline
90
4
70
1
43
0.0
10
132.75897724979185
20
52.81834075765363
10
141.09687908166683
20
48.477903793244359
10
126.78267207138089
20
20.980567964719576
10
118.44477023950557
20
25.321004929128883
0
LINE
5
327
100
AcDbEntity
8
0
100
AcDbLine
10
35
20
59.601691112724808
30
0
11
45
21
59.601691112724808
31
0
0
LINE
5
328
100
AcDbEntity
8
0
100
AcDbLine
10
45
20
59.601691112724808
30
0
11
45
21
50.601691112724787
31
0
0
LINE
5
329
100
AcDbEntity
8
0
100
AcDbLine
10
45
20
50.601691112724787
30
0
11
35
21
50.601691112724801
31
0
0
LINE
5
330
100
AcDbEntity
8
0
100
AcDbLine
10
35
20
50.601691112724801
30
0
11
35
21
47.749999999999979
31
0
0
ARC
5
331
100
AcDbEntity
8
0
100
AcDbCircle
10
40
20
47.749999999999979
30
0
40
5
210
0
220
0
230
1
100
AcDbArc
50
180
51
233.78321816931654
0
LWPOLYLINE
5
332
100
AcDbEntity
8
0
100
AcDbPolyline
90
17
43
0.0
10
37.04579000247209
20
43.716063549024554
10
37.61871564905195
20
43.33298436382899
10
38.25646130267
20
42.974863463904114
10
38.943682979792264
20
42.630375879126724
10
39.66253966242064
20
42.286207333194284
10
40.39426357436655
20
41.92816781695141
10
41.120658374881046
20
41.54227529619764
10
41.82577357536862
20
41.116003069940135
10
42.49749093744306
20
40.63948048517466
10
43.12853101279868
20
40.106264118474364
10
43.716546782445306
20
39.51341605772375
10
44.262984006258854
20
38.860641736984334
10
44.771858848716036
20
38.14938834580952
10
45.24885561600403
20
37.38222244063314
10
45.70044082563415
20
36.56225256540013
10
46.13295527906652
20
35.69256878460476
10
46.55177199555977
20
34.775776820115276
0
ARC
5
333
100
AcDbEntity
8
0
100
AcDbCircle
10
94.999999999999986
20
54.999999999999993
30
0
40
52.500000000000099
210
0
220
0
230
1
100
AcDbArc
50
-157.34239638557253
51
156.39346594641401
0
LWPOLYLINE
5
334
100
AcDbEntity
8
0
100
AcDbPolyline
90
20
43
0.0
10
46.89335395623999
20
76.02381046386189
10
46.42795522585094
20
74.98737481618758
10
45.961459095141386
20
74.01123073583975
10
45.487728794706015
20
73.09686862383214
10
44.99813442330646
20
72.24636724031446
10
44.482858892431025
20
71.46197550343747
10
43.932268264675585
20
70.74556104824354
10
43.64111698124303
20
70.41316420953147
10
43.33831720382852
20
70.09795688719953
10
43.02332952624344
20
69.79977124796622
10
42.695892716444845
20
69.51827944354783
10
42.004434025137506
20
69.00300934314522
10
41.269848248872606
20
68.54482667262239
10
40.50499528749189
20
68.13235021388212
10
39.728470717192565
20
67.75096484226331
10
38.96241815971427
20
67.38425865350781
10
38.23007639437629
20
67.01560956361261
10
37.553585830946766
20
66.62957591771885
10
37.242347188090626
20
66.42588494498641
10
36.95170815102336
20
66.21332143579856
0
ARC
5
335
100
AcDbEntity
8
0
100
AcDbCircle
10
40
20
62.249999999999986
30
0
40
4.9999999999997877
210
0
220
0
230
1
100
AcDbArc
50
127.56480497464723
51
180
0
LINE
5
336
100
AcDbEntity
8
0
100
AcDbLine
10
35.000000000000007
20
62.249999999999979
30
0
11
35
21
59.601691112724808
31
0
0
LINE
5
337
100
AcDbEntity
8
0
100
AcDbLine
10
88.300001550529061
20
57.200000104308174
30
0
11
88.300001550529061
21
40.000000319006602
31
0
0
ARC
5
338
100
AcDbEntity
8
0
100
AcDbCircle
10
89.800001550529075
20
40.000000319006602
30
0
40
1.5000000000000213
210
0
220
0
230
1
100
AcDbArc
50
180
51
270.00000000001029
0
LINE
5
339
100
AcDbEntity
8
0
100
AcDbLine
10
89.800001550529345
20
38.500000319006574
30
0
11
90.000001537256452
21
38.500000319006574
31
0
0
ARC
5
340
100
AcDbEntity
8
0
100
AcDbCircle
10
90.000001537256452
20
42.500000319006602
30
0
40
4.0000000000000213
210
0
220
0
230
1
100
AcDbArc
50
-90
51
0
0
LINE
5
341
100
AcDbEntity
8
0
100
AcDbLine
10
94.00000153725648
20
42.500000319007796
30
0
11
94.000001537246888
21
74.500000104308185
31
0
0
LWPOLYLINE
5
342
100
AcDbEntity
8
0
100
AcDbPolyline
90
33
43
0.0
10
94.00000153724687
20
74.50000010430817
10
93.99023591224679
20
74.80761729180817
10
93.9609390372467
20
75.10546885430817
10
93.91211091224662
20
75.39355479180817
10
93.84375153724655
20
75.67187510430817
10
93.75586091224645
20
75.94042979180817
10
93.64843903724638
20
76.19921885430817
10
93.5214859122463
20
76.44824229180817
10
93.37500153724623
20
76.68750010430817
10
93.20898591224616
20
76.91699229180817
10
93.02343903724612
20
77.13671885430817
10
92.81836091224605
20
77.34667979180817
10
92.59375153724599
20
77.54687510430817
10
92.34961091224594
20
77.73730479180817
10
92.08593903724588
20
77.91796885430817
10
91.80273591224584
20
78.08886729180817
10
91.5000015372458
20
78.25000010430817
10
91.17773591224574
20
78.40136729180817
10
90.83593903724571
20
78.54296885430817
10
90.47461091224567
20
78.67480479180817
10
90.09375153724564
20
78.79687510430817
10
89.6933609122456
20
78.90917979180817
10
89.27343903724557
20
79.01171885430817
10
88.83398591224555
20
79.10449229180817
10
88.37500153724551
20
79.18750010430817
10
87.8964859122455
20
79.26074229180817
10
87.39843903724548
20
79.32421885430817
10
86.88086091224545
20
79.37792979180817
10
86.34375153724544
20
79.42187510430817
10
85.78711091224544
20
79.45605479180817
10
85.21093903724542
20
79.48046885430817
10
84.61523591224542
20
79.49511729180817
10
84.00000153724542
20
79.50000010430817
0
LWPOLYLINE
5
343
100
AcDbEntity
8
0
100
AcDbPolyline
90
33
43
0.0
10
84.00000153724542
20
79.50000010430817
10
83.38476716306248
20
79.49511729180817
10
82.7890640388536
20
79.48046885430817
10
82.21289216461878
20
79.45605479180817
10
81.65625154035803
20
79.42187510430817
10
81.11914216607133
20
79.37792979180817
10
80.6015640417587
20
79.32421885430817
10
80.10351716742012
20
79.26074229180817
10
79.62500154305562
20
79.18750010430819
10
79.16601716866516
20
79.10449229180819
10
78.72656404424878
20
79.01171885430819
10
78.30664216980647
20
78.90917979180819
10
77.9062515453382
20
78.79687510430819
10
77.525392170844
20
78.6748047918082
10
77.16406404632384
20
78.5429688543082
10
76.82226717177777
20
78.4013672918082
10
76.50000154720576
20
78.2500001043082
10
76.1972671726078
20
78.0888672918082
10
75.91406404798391
20
77.9179688543082
10
75.65039217333408
20
77.73730479180821
10
75.40625154865832
20
77.54687510430821
10
75.1816421739566
20
77.34667979180821
10
74.97656404922895
20
77.13671885430823
10
74.79101717447537
20
76.91699229180823
10
74.62500154969585
20
76.68750010430823
10
74.4785171748904
20
76.44824229180823
10
74.351564050059
20
76.19921885430824
10
74.24414217520166
20
75.94042979180824
10
74.15625155031837
20
75.67187510430824
10
74.08789217540917
20
75.39355479180824
10
74.03906405047401
20
75.10546885430826
10
74.00976717551292
20
74.80761729180826
10
74.0000015505259
20
74.50000010430827
0
LINE
5
344
100
AcDbEntity
8
0
100
AcDbLine
10
74.000001550525894
20
74.50000010430827
30
0
11
89.000001550525894
21
74.500000104308157
31
0
0
LINE
5
345
100
AcDbEntity
8
0
100
AcDbLine
10
89.000001550525894
20
74.500000104308157
30
0
11
89.000001550525823
21
71.000000104308171
31
0
0
LINE
5
346
100
AcDbEntity
8
0
100
AcDbLine
10
89.000001550525823
20
71.000000104308171
30
0
11
84.000001550525823
21
71.000000104308171
31
0
0
LINE
5
347
100
AcDbEntity
8
0
100
AcDbLine
10
84.000001550525823
20
71.000000104308171
30
0
11
84.000001550525823
21
66.500000104308171
31
0
0
LINE
5
348
100
AcDbEntity
8
0
100
AcDbLine
10
84.000001550525823
20
66.500000104308171
30
0
11
89.000001550525823
21
66.500000104308171
31
0
0
LINE
5
349
100
AcDbEntity
8
0
100
AcDbLine
10
89.000001550525823
20
66.500000104308171
30
0
11
89.000001550525823
21
63.000000104308157
31
0
0
LINE
5
350
100
AcDbEntity
8
0
100
AcDbLine
10
89.000001550525823
20
63.000000104308157
30
0
11
81.500001550525823
21
63.000000104306828
31
0
0
LINE
5
351
100
AcDbEntity
8
0
100
AcDbLine
10
81.500001550525823
20
63.000000104306828
30
0
11
81.500001550525823
21
59.000000104308128
31
0
0
ARC
5
352
100
AcDbEntity
8
0
100
AcDbCircle
10
82.000001550525838
20
59.000000104308128
30
0
40
0.50000000000000711
210
0
220
0
230
1
100
AcDbArc
50
180
51
270
0
LWPOLYLINE
5
353
100
AcDbEntity
8
0
100
AcDbPolyline
90
19
43
0.0
10
82.00000155052582
20
58.500000104308135
10
82.13906628078436
20
58.508883098896916
10
82.25241785968757
20
58.532257166841895
10
82.44555473128644
20
58.605712937436714
10
82.64738971707341
20
58.69335937414146
10
82.89843464849004
20
58.777343703462996
10
83.21631325671989
20
58.84713736667461
10
83.6003387927402
20
58.89770496612439
10
84.03609164737344
20
58.92767321154363
10
84.49999697133899
20
58.93749986635523
10
84.96390229544255
20
58.92767321154363
10
85.39965515435506
20
58.89770496612439
10
85.78368071950189
20
58.84713736667461
10
86.10155943554128
20
58.777343703463
10
86.35260465698076
20
58.69335937414147
10
86.5544402847936
20
58.605712937436735
10
86.74757840303522
20
58.532257166841916
10
86.86093093765673
20
58.50888309889695
10
86.99999691545963
20
58.50000010430819
0
ARC
5
354
100
AcDbEntity
8
0
100
AcDbCircle
10
87.000001550529049
20
57.200000104308174
30
0
40
1.3000000000000078
210
0
220
0
230
1
100
AcDbArc
50
0
51
90.000204284550236
0
LINE
5
355
100
AcDbEntity
8
0
100
AcDbLine
10
79.700001550522671
20
54.800000104308197
30
0
11
79.700001550522671
21
71.999999889609768
31
0
0
ARC
5
356
100
AcDbEntity
8
0
100
AcDbCircle
10
78.200001550522643
20
71.999999889609768
30
0
40
1.5000000000000213
210
0
220
0
230
1
100
AcDbArc
50
0
51
90.000000000009777
0
LINE
5
357
100
AcDbEntity
8
0
100
AcDbLine
10
78.200001550522387
20
73.499999889609782
30
0
11
78.000001563795266
21
73.499999889609782
31
0
0
ARC
5
358
100
AcDbEntity
8
0
100
AcDbCircle
10
78.000001563795266
20
69.499999889609754
30
0
40
4.0000000000000302
210
0
220
-0
230
1
100
AcDbArc
50
90
51
180
0
LINE
5
359
100
AcDbEntity
8
0
100
AcDbLine
10
74.000001563795252
20
69.49999988960856
30
0
11
74.000001563804844
21
37.500000104308178
31
0
0
LWPOLYLINE
5
360
100
AcDbEntity
8
0
100
AcDbPolyline
90
33
43
0.0
10
74.00000156380483
20
37.50000010430818
10
74.00976718880493
20
37.19238291680818
10
74.03906406380501
20
36.89453135430818
10
74.0878921888051
20
36.60644541680818
10
74.15625156380517
20
36.32812510430818
10
74.24414218880526
20
36.05957041680818
10
74.35156406380533
20
35.80078135430818
10
74.4785171888054
20
35.55175791680818
10
74.62500156380547
20
35.31250010430818
10
74.79101718880554
20
35.08300791680818
10
74.9765640638056
20
34.86328135430818
10
75.18164218880567
20
34.65332041680818
10
75.40625156380572
20
34.45312510430818
10
75.65039218880578
20
34.26269541680818
10
75.91406406380582
20
34.08203135430818
10
76.19726718880588
20
33.91113291680818
10
76.50000156380592
20
33.75000010430818
10
76.82226718880597
20
33.59863291680818
10
77.16406406380602
20
33.45703135430818
10
77.52539218880605
20
33.32519541680818
10
77.9062515638061
20
33.20312510430818
10
78.30664218880612
20
33.09082041680818
10
78.72656406380615
20
32.98828135430818
10
79.16601718880618
20
32.89550791680818
10
79.62500156380621
20
32.81250010430818
10
80.10351718880622
20
32.73925791680818
10
80.60156406380624
20
32.67578135430818
10
81.11914218880625
20
32.62207041680818
10
81.65625156380628
20
32.57812510430818
10
82.21289218880628
20
32.54394541680818
10
82.7890640638063
20
32.51953135430818
10
83.3847671888063
20
32.50488291680818
10
84.0000015638063
20
32.50000010430818
0
LWPOLYLINE
5
361
100
AcDbEntity
8
0
100
AcDbPolyline
90
33
43
0.0
10
84.0000015638063
20
32.50000010430818
10
84.61523593798924
20
32.50488291680818
10
85.21093906219812
20
32.51953135430818
10
85.78711093643294
20
32.54394541680818
10
86.34375156069369
20
32.57812510430818
10
86.88086093498039
20
32.62207041680818
10
87.39843905929301
20
32.67578135430818
10
87.89648593363158
20
32.73925791680817
10
88.3750015579961
20
32.81250010430817
10
88.83398593238655
20
32.89550791680817
10
89.27343905680293
20
32.98828135430817
10
89.69336093124527
20
33.09082041680817
10
90.09375155571352
20
33.20312510430817
10
90.47461093020773
20
33.325195416808164
10
90.83593905472786
20
33.457031354308164
10
91.17773592927394
20
33.59863291680816
10
91.50000155384596
20
33.75000010430816
10
91.80273592844391
20
33.91113291680816
10
92.0859390530678
20
34.08203135430815
10
92.34961092771763
20
34.26269541680815
10
92.59375155239341
20
34.45312510430815
10
92.81836092709511
20
34.65332041680814
10
93.02343905182276
20
34.863281354308135
10
93.20898592657635
20
35.083007916808135
10
93.37500155135587
20
35.31250010430813
10
93.52148592616133
20
35.55175791680812
10
93.64843905099272
20
35.80078135430812
10
93.75586092585006
20
36.059570416808114
10
93.84375155073333
20
36.328125104308114
10
93.91211092564255
20
36.60644541680811
10
93.96093905057771
20
36.8945313543081
10
93.99023592553878
20
37.19238291680809
10
94.00000155052582
20
37.500000104308086
0
LINE
5
362
100
AcDbEntity
8
0
100
AcDbLine
10
94.000001550525823
20
37.500000104308093
30
0
11
79.000001550525823
21
37.500000104308199
31
0
0
LINE
5
363
100
AcDbEntity
8
0
100
AcDbLine
10
79.000001550525823
20
37.500000104308199
30
0
11
79.000001550525894
21
41.000000104308199
31
0
0
LINE
5
364
100
AcDbEntity
8
0
100
AcDbLine
10
79.000001550525894
20
41.000000104308199
30
0
11
84.000001550525894
21
41.000000104308199
31
0
0
LINE
5
365
100
AcDbEntity
8
0
100
AcDbLine
10
84.000001550525894
20
41.000000104308199
30
0
11
84.000001550525894
21
45.500000104308199
31
0
0
LINE
5
366
100
AcDbEntity
8
0
100
AcDbLine
10
84.000001550525894
20
45.500000104308199
30
0
11
79.000001550525894
21
45.500000104308199
31
0
0
LINE
5
367
100
AcDbEntity
8
0
100
AcDbLine
10
79.000001550525894
20
45.500000104308199
30
0
11
79.000001550525894
21
49.000000104308199
31
0
0
LINE
5
368
100
AcDbEntity
8
0
100
AcDbLine
10
79.000001550525894
20
49.000000104308199
30
0
11
86.500001550525894
21
49.000000104309542
31
0
0
LINE
5
369
100
AcDbEntity
8
0
100
AcDbLine
10
86.500001550525894
20
49.000000104309542
30
0
11
86.500001550525894
21
53.000000104308228
31
0
0
ARC
5
370
100
AcDbEntity
8
0
100
AcDbCircle
10
86.000001550525894
20
53.000000104308228
30
0
40
0.50000000000000711
210
0
220
0
230
1
100
AcDbArc
50
0
51
90
0
LWPOLYLINE
5
371
100
AcDbEntity
8
0
100
AcDbPolyline
90
19
43
0.0
10
86.00000155052588
20
53.50000010430822
10
85.86093682026736
20
53.49111710971945
10
85.74758524136415
20
53.467743041774476
10
85.55444836976528
20
53.39428727117966
10
85.35261338397831
20
53.30664083447491
10
85.10156845256166
20
53.222656505153374
10
84.78368984433183
20
53.15286284194176
10
84.39966430831151
20
53.102295242491984
10
83.96391145367826
20
53.07232699707274
10
83.50000612971273
20
53.062500342261124
10
83.03610080560917
20
53.07232699707273
10
82.60034794669666
20
53.10229524249197
10
82.21632238154983
20
53.15286284194175
10
81.89844366551044
20
53.22265650515335
10
81.64739844407096
20
53.306640834474884
10
81.44556281625812
20
53.39428727117962
10
81.2524246980165
20
53.46774304177444
10
81.13907216339499
20
53.491117109719404
10
81.00000618559208
20
53.500000104308164
0
ARC
5
372
100
AcDbEntity
8
0
100
AcDbCircle
10
81.000001550522683
20
54.800000104308204
30
0
40
1.3000000000000078
210
0
220
0
230
1
100
AcDbArc
50
180
51
270.00020428454962
0
LINE
5
373
100
AcDbEntity
8
0
100
AcDbLine
10
97.000001563795252
20
69.49999988960856
30
0
11
97.000001563804844
21
37.500000104308178
31
0
0
LINE
5
374
100
AcDbEntity
8
0
100
AcDbLine
10
102.70000155052267
20
54.800000104308197
30
0
11
102.70000155052267
21
71.999999889609768
31
0
0
ARC
5
375
100
AcDbEntity
8
0
100
AcDbCircle
10
101.20000155052266
20
71.999999889609768
30
0
40
1.5000000000000213
210
0
220
0
230
1
100
AcDbArc
50
0
51
90.000000000010317
0
LINE
5
376
100
AcDbEntity
8
0
100
AcDbLine
10
101.20000155052239
20
73.499999889609782
30
0
11
101.00000156379524
21
73.499999889609782
31
0
0
ARC
5
377
100
AcDbEntity
8
0
100
AcDbCircle
10
101.00000156379524
20
69.499999889609754
30
0
40
4.0000000000000302
210
0
220
-0
230
1
100
AcDbArc
50
90
51
180
0
LINE
5
378
100
AcDbEntity
8
0
100
AcDbLine
10
97.000001563795223
20
69.49999988960856
30
0
11
97.000001563804844
21
37.500000104308178
31
0
0
LWPOLYLINE
5
379
100
AcDbEntity
8
0
100
AcDbPolyline
90
33
43
0.0
10
97.00000156380484
20
37.50000010430818
10
97.00976718880493
20
37.19238291680818
10
97.03906406380501
20
36.89453135430818
10
97.08789218880511
20
36.60644541680818
10
97.1562515638052
20
36.32812510430818
10
97.24414218880527
20
36.05957041680818
10
97.35156406380536
20
35.80078135430818
10
97.47851718880543
20
35.55175791680818
10
97.6250015638055
20
35.31250010430818
10
97.79101718880557
20
35.08300791680818
10
97.97656406380563
20
34.86328135430818
10
98.1816421888057
20
34.65332041680818
10
98.40625156380575
20
34.45312510430818
10
98.6503921888058
20
34.26269541680818
10
98.91406406380585
20
34.08203135430818
10
99.19726718880591
20
33.91113291680818
10
99.50000156380597
20
33.75000010430818
10
99.82226718880601
20
33.59863291680818
10
100.16406406380605
20
33.45703135430818
10
100.52539218880608
20
33.32519541680818
10
100.90625156380612
20
33.20312510430818
10
101.30664218880615
20
33.09082041680818
10
101.7265640638062
20
32.98828135430818
10
102.16601718880621
20
32.89550791680818
10
102.62500156380625
20
32.81250010430818
10
103.10351718880626
20
32.73925791680818
10
103.60156406380628
20
32.67578135430818
10
104.1191421888063
20
32.62207041680818
10
104.65625156380632
20
32.57812510430818
10
105.21289218880632
20
32.54394541680818
10
105.78906406380634
20
32.51953135430818
10
106.38476718880634
20
32.50488291680818
10
107.00000156380634
20
32.50000010430818
0
LWPOLYLINE
5
380
100
AcDbEntity
8
0
100
AcDbPolyline
90
33
43
0.0
10
107.00000156380634
20
32.50000010430818
10
107.61523593798928
20
32.50488291680818
10
108.21093906219815
20
32.51953135430818
10
108.78711093643297
20
32.54394541680818
10
109.34375156069373
20
32.57812510430818
10
109.88086093498042
20
32.62207041680818
10
110.39843905929305
20
32.67578135430818
10
110.89648593363161
20
32.73925791680817
10
111.37500155799614
20
32.81250010430817
10
111.83398593238658
20
32.89550791680817
10
112.27343905680296
20
32.98828135430817
10
112.6933609312453
20
33.09082041680817
10
113.09375155571355
20
33.20312510430817
10
113.47461093020776
20
33.325195416808164
10
113.83593905472789
20
33.457031354308164
10
114.17773592927396
20
33.59863291680816
10
114.50000155384598
20
33.75000010430816
10
114.80273592844394
20
33.91113291680816
10
115.08593905306783
20
34.08203135430815
10
115.34961092771766
20
34.26269541680815
10
115.59375155239344
20
34.45312510430815
10
115.81836092709513
20
34.65332041680814
10
116.02343905182278
20
34.863281354308135
10
116.20898592657636
20
35.083007916808135
10
116.37500155135591
20
35.31250010430813
10
116.52148592616136
20
35.55175791680812
10
116.64843905099276
20
35.80078135430812
10
116.7558609258501
20
36.059570416808114
10
116.84375155073337
20
36.328125104308114
10
116.9121109256426
20
36.60644541680811
10
116.96093905057774
20
36.8945313543081
10
116.99023592553883
20
37.19238291680809
10
117.00000155052587
20
37.500000104308086
0
LINE
5
381
100
AcDbEntity
8
0
100
AcDbLine
10
117.00000155052587
20
37.500000104308093
30
0
11
102.00000155052587
21
37.500000104308199
31
0
0
LINE
5
382
100
AcDbEntity
8
0
100
AcDbLine
10
102.00000155052587
20
37.500000104308199
30
0
11
102.00000155052587
21
41.000000104308199
31
0
0
LINE
5
383
100
AcDbEntity
8
0
100
AcDbLine
10
102.00000155052587
20
41.000000104308199
30
0
11
107.00000155052587
21
41.000000104308199
31
0
0
LINE
5
384
100
AcDbEntity
8
0
100
AcDbLine
10
107.00000155052587
20
41.000000104308199
30
0
11
107.00000155052587
21
45.500000104308199
31
0
0
LINE
5
385
100
AcDbEntity
8
0
100
AcDbLine
10
107.00000155052587
20
45.500000104308199
30
0
11
102.00000155052587
21
45.500000104308199
31
0
0
LINE
5
386
100
AcDbEntity
8
0
100
AcDbLine
10
102.00000155052587
20
45.500000104308199
30
0
11
102.00000155052587
21
49.000000104308199
31
0
0
LINE
5
387
100
AcDbEntity
8
0
100
AcDbLine
10
102.00000155052587
20
49.000000104308199
30
0
11
109.50000155052587
21
49.000000104309542
31
0
0
LINE
5
388
100
AcDbEntity
8
0
100
AcDbLine
10
109.50000155052587
20
49.000000104309542
30
0
11
109.50000155052587
21
53.000000104308228
31
0
0
ARC
5
389
100
AcDbEntity
8
0
100
AcDbCircle
10
109.00000155052589
20
53.000000104308228
30
0
40
0.49999999999997158
210
0
220
0
230
1
100
AcDbArc
50
0
51
90
0
LWPOLYLINE
5
390
100
AcDbEntity
8
0
100
AcDbPolyline
90
19
43
0.0
10
109.0000015505259
20
53.50000010430822
10
108.86093682026736
20
53.49111710971945
10
108.74758524136418
20
53.467743041774476
10
108.55444836976532
20
53.39428727117966
10
108.35261338397832
20
53.30664083447491
10
108.10156845256171
20
53.222656505153374
10
107.78368984433187
20
53.15286284194176
10
107.39966430831156
20
53.102295242491984
10
106.9639114536783
20
53.07232699707274
10
106.50000612971277
20
53.062500342261124
10
106.03610080560921
20
53.07232699707273
10
105.6003479466967
20
53.10229524249197
10
105.21632238154987
20
53.15286284194175
10
104.89844366551048
20
53.22265650515335
10
104.647398444071
20
53.306640834474884
10
104.44556281625816
20
53.39428727117962
10
104.25242469801654
20
53.46774304177444
10
104.13907216339503
20
53.491117109719404
10
104.00000618559213
20
53.500000104308164
0
ARC
5
391
100
AcDbEntity
8
0
100
AcDbCircle
10
104.00000155052271
20
54.800000104308197
30
0
40
1.3000000000000433
210
0
220
0
230
1
100
AcDbArc
50
180
51
270.00020428455019
0
LINE
5
392
100
AcDbEntity
8
0
100
AcDbLine
10
111.30000155052906
20
57.200000104308174
30
0
11
111.30000155052906
21
40.000000319006602
31
0
0
ARC
5
393
100
AcDbEntity
8
0
100
AcDbCircle
10
112.80000155052912
20
40.000000319006602
30
0
40
1.5000000000000568
210
0
220
0
230
1
100
AcDbArc
50
180
51
270.00000000001029
0
LINE
5
394
100
AcDbEntity
8
0
100
AcDbLine
10
112.80000155052939
20
38.500000319006574
30
0
11
113.00000153725649
21
38.500000319006574
31
0
0
ARC
5
395
100
AcDbEntity
8
0
100
AcDbCircle
10
113.00000153725649
20
42.500000319006602
30
0
40
4.0000000000000213
210
0
220
0
230
1
100
AcDbArc
50
-90
51
0
0
LINE
5
396
100
AcDbEntity
8
0
100
AcDbLine
10
117.00000153725652
20
42.500000319007796
30
0
11
117.00000153724689
21
74.500000104308185
31
0
0
LWPOLYLINE
5
397
100
AcDbEntity
8
0
100
AcDbPolyline
90
33
43
0.0
10
117.00000153724689
20
74.50000010430817
10
116.9902359122468
20
74.80761729180817
10
116.9609390372467
20
75.10546885430817
10
116.91211091224662
20
75.39355479180817
10
116.84375153724653
20
75.67187510430817
10
116.75586091224646
20
75.94042979180817
10
116.64843903724638
20
76.19921885430817
10
116.5214859122463
20
76.44824229180817
10
116.37500153724623
20
76.68750010430817
10
116.20898591224616
20
76.91699229180817
10
116.0234390372461
20
77.13671885430817
10
115.81836091224604
20
77.34667979180817
10
115.59375153724598
20
77.54687510430817
10
115.34961091224592
20
77.73730479180817
10
115.08593903724588
20
77.91796885430817
10
114.80273591224582
20
78.08886729180817
10
114.50000153724577
20
78.25000010430817
10
114.17773591224571
20
78.40136729180817
10
113.83593903724568
20
78.54296885430817
10
113.47461091224564
20
78.67480479180817
10
113.09375153724561
20
78.79687510430817
10
112.69336091224557
20
78.90917979180817
10
112.27343903724554
20
79.01171885430817
10
111.83398591224552
20
79.10449229180817
10
111.37500153724548
20
79.18750010430817
10
110.89648591224547
20
79.26074229180817
10
110.39843903724545
20
79.32421885430817
10
109.88086091224542
20
79.37792979180817
10
109.34375153724541
20
79.42187510430817
10
108.78711091224541
20
79.45605479180817
10
108.2109390372454
20
79.48046885430817
10
107.6152359122454
20
79.49511729180817
10
107.0000015372454
20
79.50000010430817
0
LWPOLYLINE
5
398
100
AcDbEntity
8
0
100
AcDbPolyline
90
33
43
0.0
10
107.0000015372454
20
79.50000010430817
10
106.38476716306245
20
79.49511729180817
10
105.78906403885358
20
79.48046885430817
10
105.21289216461876
20
79.45605479180817
10
104.656251540358
20
79.42187510430817
10
104.11914216607131
20
79.37792979180817
10
103.60156404175868
20
79.32421885430817
10
103.10351716742012
20
79.26074229180817
10
102.62500154305559
20
79.18750010430819
10
102.16601716866515
20
79.10449229180819
10
101.72656404424878
20
79.01171885430819
10
101.30664216980644
20
78.90917979180819
10
100.90625154533818
20
78.79687510430819
10
100.52539217084397
20
78.6748047918082
10
100.16406404632384
20
78.5429688543082
10
99.82226717177777
20
78.4013672918082
10
99.50000154720574
20
78.2500001043082
10
99.1972671726078
20
78.0888672918082
10
98.9140640479839
20
77.9179688543082
10
98.65039217333407
20
77.73730479180821
10
98.40625154865829
20
77.54687510430821
10
98.18164217395659
20
77.34667979180821
10
97.97656404922894
20
77.13671885430823
10
97.79101717447536
20
76.91699229180823
10
97.62500154969582
20
76.68750010430823
10
97.47851717489037
20
76.44824229180823
10
97.35156405005897
20
76.19921885430824
10
97.24414217520163
20
75.94042979180824
10
97.15625155031834
20
75.67187510430824
10
97.08789217540914
20
75.39355479180824
10
97.039064050474
20
75.10546885430826
10
97.00976717551289
20
74.80761729180826
10
97.00000155052587
20
74.50000010430827
0
LINE
5
399
100
AcDbEntity
8
0
100
AcDbLine
10
97.000001550525866
20
74.50000010430827
30
0
11
112.00000155052587
21
74.500000104308157
31
0
0
LINE
5
400
100
AcDbEntity
8
0
100
AcDbLine
10
112.00000155052587
20
74.500000104308157
30
0
11
112.00000155052587
21
71.000000104308171
31
0
0
LINE
5
401
100
AcDbEntity
8
0
100
AcDbLine
10
112.00000155052587
20
71.000000104308171
30
0
11
107.00000155052587
21
71.000000104308171
31
0
0
LINE
5
402
100
AcDbEntity
8
0
100
AcDbLine
10
107.00000155052587
20
71.000000104308171
30
0
11
107.00000155052587
21
66.500000104308171
31
0
0
LINE
5
403
100
AcDbEntity
8
0
100
AcDbLine
10
107.00000155052587
20
66.500000104308171
30
0
11
112.00000155052587
21
66.500000104308171
31
0
0
LINE
5
404
100
AcDbEntity
8
0
100
AcDbLine
10
112.00000155052587
20
66.500000104308171
30
0
11
112.00000155052587
21
63.000000104308157
31
0
0
LINE
5
405
100
AcDbEntity
8
0
100
AcDbLine
10
112.00000155052587
20
63.000000104308157
30
0
11
104.50000155052587
21
63.000000104306828
31
0
0
LINE
5
406
100
AcDbEntity
8
0
100
AcDbLine
10
104.50000155052587
20
63.000000104306828
30
0
11
104.50000155052587
21
59.000000104308128
31
0
0
ARC
5
407
100
AcDbEntity
8
0
100
AcDbCircle
10
105.00000155052584
20
59.000000104308128
30
0
40
0.49999999999997158
210
0
220
0
230
1
100
AcDbArc
50
180
51
270
0
LWPOLYLINE
5
408
100
AcDbEntity
8
0
100
AcDbPolyline
90
19
43
0.0
10
105.00000155052584
20
58.500000104308135
10
105.13906628078438
20
58.508883098896916
10
105.25241785968755
20
58.532257166841895
10
105.4455547312864
20
58.605712937436714
10
105.6473897170734
20
58.69335937414146
10
105.89843464849001
20
58.777343703462996
10
106.21631325671986
20
58.84713736667461
10
106.60033879274017
20
58.89770496612439
10
107.03609164737341
20
58.92767321154363
10
107.49999697133896
20
58.93749986635523
10
107.96390229544252
20
58.92767321154363
10
108.39965515435503
20
58.89770496612439
10
108.78368071950186
20
58.84713736667461
10
109.10155943554125
20
58.777343703463
10
109.35260465698073
20
58.69335937414147
10
109.55444028479357
20
58.605712937436735
10
109.74757840303519
20
58.532257166841916
10
109.8609309376567
20
58.50888309889695
10
109.9999969154596
20
58.50000010430819
0
ARC
5
409
100
AcDbEntity
8
0
100
AcDbCircle
10
110.00000155052902
20
57.200000104308174
30
0
40
1.3000000000000433
210
0
220
0
230
1
100
AcDbArc
50
0
51
90.000204284550236
0
ENDSEC
0
SECTION
2
OBJECTS
0
DICTIONARY
5
C
100
AcDbDictionary
3
ACAD_GROUP
350
D
3
ACAD_MLINESTYLE
350
17
0
DICTIONARY
5
D
100
AcDbDictionary
0
DICTIONARY
5
1A
330
C
100
AcDbDictionary
0
DICTIONARY
5
17
100
AcDbDictionary
0
ENDSEC
0
EOF
